<?xml version="1.0" encoding="utf-8"?>
<!-- Generator: Adobe Illustrator 18.0.0, SVG Export Plug-In . SVG Version: 6.00 Build 0)  -->
<!DOCTYPE svg PUBLIC "-//W3C//DTD SVG 1.1//EN" "http://www.w3.org/Graphics/SVG/1.1/DTD/svg11.dtd">
<svg version="1.1" id="Layer_1" xmlns="http://www.w3.org/2000/svg" xmlns:xlink="http://www.w3.org/1999/xlink" x="0px" y="0px"
	 viewBox="340.6 1665.5 283.5 283.5" enable-background="new 340.6 1665.5 283.5 283.5" xml:space="preserve">
<g>
	<g>
		<g>
			<g>
				<path fill="#D06519" d="M146,82.3c-3.2,5.2-5.5,10.7-6.4,16.1c-0.9,5.5-0.3,10.9,2,15.9c0.5,1.2,1.2,2.4,2,3.6
					c0.4,0.5,0.8,1.2,1.2,1.9c0.4,0.7,0.8,1.3,1.2,2c1.6,2.8,2.8,5.7,3.5,8.9c0.7,3.1,0.7,6.4-0.3,9.6c-0.5,1.6-1.2,3.1-2.3,4.4
					c-1.1,1.3-2.3,2.5-3.7,3.3l-0.4-0.4c0.9-1.2,1.6-2.5,2-3.9s0.7-2.7,0.7-4c0.1-2.7-0.4-5.3-1.3-7.9c-0.9-2.5-2.3-5.1-3.7-7.5
					c-0.4-0.7-0.8-1.2-1.2-1.9c-0.4-0.5-0.8-1.2-1.3-1.9c-0.9-1.3-1.7-2.8-2.3-4.4c-0.7-1.5-1.2-3.1-1.5-4.7
					c-0.4-1.6-0.5-3.2-0.7-4.8c-0.1-3.2,0.4-6.4,1.3-9.3c0.9-3.1,2.4-5.9,4.1-8.4c1.7-2.7,3.9-5.1,6.4-7.1L146,82.3z"/>
				<path fill="#D06519" d="M116.3,99.5c-2.4,3.9-4.1,7.9-4.8,11.9c-0.7,4-0.3,8.1,1.5,11.7c0.4,0.9,0.9,1.9,1.5,2.7
					c0.3,0.4,0.7,0.9,0.9,1.5c0.3,0.5,0.7,1.1,0.9,1.5c1.2,2,2.1,4.3,2.5,6.5c0.5,2.3,0.5,4.8-0.3,7.1c-0.4,1.2-0.9,2.3-1.6,3.2
					c-0.8,0.9-1.6,1.9-2.8,2.4l-0.3-0.3c0.7-0.9,1.2-1.9,1.5-2.8s0.5-2,0.5-2.9c0.1-2-0.3-4-1.1-5.9c-0.7-1.9-1.6-3.7-2.8-5.6
					c-0.3-0.4-0.5-0.9-0.8-1.3s-0.7-0.9-0.9-1.5c-0.7-1.1-1.2-2.1-1.7-3.2s-0.8-2.3-1.1-3.5c-0.3-1.2-0.4-2.4-0.5-3.5
					c-0.1-2.4,0.3-4.7,0.9-6.9s1.7-4.3,3.1-6.3c1.3-1.9,2.9-3.7,4.8-5.2L116.3,99.5z"/>
				<path fill="#D06519" d="M173.4,99.5c-2.4,3.9-4.1,7.9-4.8,11.9c-0.7,4-0.3,8.1,1.5,11.7c0.4,0.9,0.9,1.9,1.5,2.7
					c0.3,0.4,0.7,0.9,0.9,1.5c0.3,0.5,0.7,1.1,0.9,1.5c1.2,2,2.1,4.3,2.5,6.5c0.5,2.3,0.5,4.8-0.3,7.1c-0.4,1.2-0.9,2.3-1.6,3.2
					c-0.8,0.9-1.6,1.9-2.8,2.4l-0.3-0.3c0.7-0.9,1.2-1.9,1.5-2.8c0.3-0.9,0.5-2,0.5-2.9c0.1-2-0.3-4-1.1-5.9
					c-0.7-1.9-1.6-3.7-2.8-5.6c-0.3-0.4-0.5-0.9-0.8-1.3c-0.3-0.4-0.7-0.9-0.9-1.5c-0.7-1.1-1.2-2.1-1.7-3.2
					c-0.5-1.1-0.8-2.3-1.1-3.5c-0.3-1.2-0.4-2.4-0.5-3.5c-0.1-2.4,0.3-4.7,0.9-6.9c0.7-2.3,1.7-4.3,3.1-6.3c1.3-1.9,2.9-3.7,4.8-5.2
					L173.4,99.5z"/>
			</g>
			<path fill="#D06519" d="M165.7,201.4h18.5c16.4,0,19.6-16.7,32.2-27.4c12.5-10.8,38.6-12,38.6-12v-2.3h-78.9h-69.2H28.3v2.3
				c0,0,26.1,1.2,38.6,12s15.9,27.4,32.2,27.4h18.5H165.7z"/>
		</g>
	</g>
</g>
<g>
	<g>
		<g>
			<path fill="#D06519" d="M165.7,532.9h18.5c16.4,0,19.6-16.7,32.2-27.4c12.5-10.8,38.6-12,38.6-12v-2.3h-78.9h-69.2H28.3v2.3
				c0,0,26.1,1.2,38.6,12s15.9,27.4,32.2,27.4h18.5H165.7z"/>
		</g>
	</g>
</g>
<g>
	<g>
		<g>
			<g>
				<path fill="#FFFFFF" d="M486.6,82.3c-3.2,5.2-5.5,10.7-6.4,16.1c-0.9,5.5-0.3,10.9,2,15.9c0.5,1.2,1.2,2.4,2,3.6
					c0.4,0.5,0.8,1.2,1.2,1.9c0.4,0.7,0.8,1.3,1.2,2c1.6,2.8,2.8,5.7,3.5,8.9c0.7,3.1,0.7,6.4-0.3,9.6c-0.5,1.6-1.2,3.1-2.3,4.4
					c-1.1,1.3-2.3,2.5-3.7,3.3l-0.4-0.4c0.9-1.2,1.6-2.5,2-3.9s0.7-2.7,0.7-4c0.1-2.7-0.4-5.3-1.3-7.9c-0.9-2.5-2.3-5.1-3.7-7.5
					c-0.4-0.7-0.8-1.2-1.2-1.9c-0.4-0.5-0.8-1.2-1.3-1.9c-0.9-1.3-1.7-2.8-2.3-4.4c-0.7-1.5-1.2-3.1-1.5-4.7
					c-0.4-1.6-0.5-3.2-0.7-4.8c-0.1-3.2,0.4-6.4,1.3-9.3c0.9-3.1,2.4-5.9,4.1-8.4c1.7-2.7,3.9-5.1,6.4-7.1L486.6,82.3z"/>
				<path fill="#FFFFFF" d="M456.9,99.5c-2.4,3.9-4.1,7.9-4.8,11.9c-0.7,4-0.3,8.1,1.5,11.7c0.4,0.9,0.9,1.9,1.5,2.7
					c0.3,0.4,0.7,0.9,0.9,1.5c0.3,0.5,0.7,1.1,0.9,1.5c1.2,2,2.1,4.3,2.5,6.5c0.5,2.3,0.5,4.8-0.3,7.1c-0.4,1.2-0.9,2.3-1.6,3.2
					c-0.8,0.9-1.6,1.9-2.8,2.4l-0.3-0.3c0.7-0.9,1.2-1.9,1.5-2.8s0.5-2,0.5-2.9c0.1-2-0.3-4-1.1-5.9c-0.7-1.9-1.6-3.7-2.8-5.6
					c-0.3-0.4-0.5-0.9-0.8-1.3c-0.3-0.4-0.7-0.9-0.9-1.5c-0.7-1.1-1.2-2.1-1.7-3.2s-0.8-2.3-1.1-3.5c-0.3-1.2-0.4-2.4-0.5-3.5
					c-0.1-2.4,0.3-4.7,0.9-6.9s1.7-4.3,3.1-6.3c1.3-1.9,2.9-3.7,4.8-5.2L456.9,99.5z"/>
				<path fill="#FFFFFF" d="M514,99.5c-2.4,3.9-4.1,7.9-4.8,11.9c-0.7,4-0.3,8.1,1.5,11.7c0.4,0.9,0.9,1.9,1.5,2.7
					c0.3,0.4,0.7,0.9,0.9,1.5c0.3,0.5,0.7,1.1,0.9,1.5c1.2,2,2.1,4.3,2.5,6.5c0.5,2.3,0.5,4.8-0.3,7.1c-0.4,1.2-0.9,2.3-1.6,3.2
					c-0.8,0.9-1.6,1.9-2.8,2.4l-0.3-0.3c0.7-0.9,1.2-1.9,1.5-2.8c0.3-0.9,0.5-2,0.5-2.9c0.1-2-0.3-4-1.1-5.9
					c-0.7-1.9-1.6-3.7-2.8-5.6c-0.3-0.4-0.5-0.9-0.8-1.3s-0.7-0.9-0.9-1.5c-0.7-1.1-1.2-2.1-1.7-3.2s-0.8-2.3-1.1-3.5
					c-0.3-1.2-0.4-2.4-0.5-3.5c-0.1-2.4,0.3-4.7,0.9-6.9s1.7-4.3,3.1-6.3c1.3-1.9,2.9-3.7,4.8-5.2L514,99.5z"/>
			</g>
			<path fill="#FFFFFF" d="M506.3,201.4h18.5c16.4,0,19.6-16.7,32.2-27.4c12.5-10.8,38.6-12,38.6-12v-2.3h-78.9h-69.2h-78.7v2.3
				c0,0,26.1,1.2,38.6,12c12.5,10.8,15.9,27.4,32.2,27.4h18.5H506.3z"/>
		</g>
	</g>
</g>
<g>
	<g>
		<g>
			<path fill="#D06519" d="M187.8,445.6c0.4-0.4,0.8-0.8,1.3-1.1c-0.6-3.7-2.7-6.9-5.6-9c-3.4,2.5-5.6,6.5-5.5,11
				c0,4.5,2.3,8.5,5.8,10.8c0.2-0.1,0.3-0.2,0.4-0.3C183.5,452.9,184.7,448.7,187.8,445.6z"/>
			<path fill="#D06519" d="M189.3,446.2c-3.2,3.2-4.3,7.6-3.6,11.7c4.1,0.7,8.5-0.6,11.7-3.8c3.2-3.2,4.3-7.6,3.6-11.7
				C196.8,441.7,192.4,443,189.3,446.2z"/>
		</g>
		<path fill="#D06519" d="M199,480.5c-4.4,5.7-11.5,7.6-15.7,4.3c-4.3-3.3-4.2-10.6,0.3-16.3c4.4-5.7,11.4-7.6,15.7-4.3
			C203.6,467.5,203.5,474.8,199,480.5z"/>
		<path fill="#D06519" d="M77.7,455.4c-0.5,13.1,9.2,25.9,23.2,29.8c14.1,4,27.8-2.2,32.7-14.1L77.7,455.4z M103.3,474.6
			c-7.9-2.2-14.1-6.1-13.8-13.4l5.4,1.5c-0.4,0.1-0.8,0.3-1.1,0.4c-1.2,0.6-2.5,2.3-1.6,3.8c1,1.5,2.8,0.6,3.6-0.6
			c0.4-0.6,1.3-2,1.4-3l6.5,1.8c-0.6,0.8-1.2,1.9-1.5,2.5c-0.8,1.8-0.9,5,1.3,5.7c2.2,0.6,3.5-2.3,3.5-4.3c0-0.7-0.1-1.9-0.3-3
			l6.5,1.8c-0.4,0.9-0.1,2.6,0,3.4c0.3,1.4,1.5,3.3,3,2.4c1.5-0.8,1-3.1,0.2-4.2c-0.2-0.2-0.5-0.6-0.8-0.9l5.3,1.5
			C118.2,476.7,111.2,476.8,103.3,474.6z"/>
		<g>
			<path fill="#D06519" d="M147.7,429c-4,3.2-7.1,6.6-9.1,10c-1.3,2.2-2.2,4.4-2.7,6.6c-0.3-1-0.9-2-1.6-2.8l0.8-2.4
				c0.1-0.3,0.1-0.8-0.1-1.1c0,0-2.5-5.5,0.3-7c2.8-1.5,0.3-3.4,0.9-4.8c0.6-1.3,10.2-6.2,12.1-5.8c1.7,0.3,4.1,1.5,5.3,3.1
				C151.8,425.9,149.8,427.3,147.7,429z"/>
			<path fill="#D06519" d="M149.9,430.5c1.9-1.6,3.9-2.9,5.7-4.1c0,0,0,0,0,0c0.8,1.7,1.7,4.4,1.7,4.4c0.3,0.2,0.8,0.5,1.2,0.6
				c0,0,3.7,1.3,0.8,3c-2.9,1.7-4.9,9.1-10.6,5.6c-1.5-0.9-9.3,6.2-9.6,7.6c-0.1,0.2-0.1,0.4-0.2,0.6l-0.7,0.3
				C138.7,442.4,142.6,436.4,149.9,430.5z"/>
		</g>
		<g>
			<path fill="#D06519" d="M133.8,455.1L130,451c-0.3-0.6-0.5-1.5-0.4-2.2c0,0,1.3-11.9-3.7-13.3c-5-1.4-2-6.4-3.5-8.6
				c-1.5-2.2-18.3-6.5-21-4.7c-2.3,1.5-5.5,5-6.6,8.8c3.4,1.3,7.2,2.9,11,5c7.5,4,13.7,8.8,18.3,14.2c2.5,2.9,5.6,6.6,7.6,10.1
				C132.1,458.4,132.8,456.6,133.8,455.1z"/>
			<g>
				<path fill="#D06519" d="M131.1,465.7c0-0.2,0.1-2,0.2-2.6c-5.5-7.5-13.8-17.3-26.5-24.1c-3.6-1.9-7.2-3.5-10.5-4.8
					c0,0,0,0,0,0.1c-0.4,3.7-0.5,9.4-0.5,9.4c-0.3,0.6-1,1.3-1.5,1.8c0,0-5.1,4.4,0.1,6.1c5.2,1.7,11.5,14.8,18.6,5.1
					C112.7,454.5,129.5,462.8,131.1,465.7z"/>
			</g>
		</g>
		<path fill="#D06519" d="M158.1,442.5c-12.1,0-22,9.8-22,22s9.8,22,22,22c12.1,0,22-9.8,22-22S170.3,442.5,158.1,442.5z
			 M165.1,454.1c0.9-1.5,3.1-2.9,4.6-1.4c1.5,1.5,0.1,3.8-1.4,4.7c-0.9,0.6-3.5,1.8-4.3,1C163.3,457.6,164.6,455.1,165.1,454.1z
			 M158.1,447.9c2.2,0,2.7,2.6,2.3,4.3c-0.3,1.1-1.1,3.8-2.3,3.8c-1.2,0-2.1-2.7-2.3-3.8C155.4,450.5,155.9,447.9,158.1,447.9z
			 M146.4,452.8c1.5-1.5,3.8-0.1,4.7,1.4c0.6,0.9,1.8,3.5,1,4.3c-0.8,0.8-3.4-0.5-4.3-1C146.4,456.5,144.9,454.3,146.4,452.8z
			 M141.6,464.4c0-2.2,2.6-2.7,4.3-2.3c1.1,0.3,3.8,1.1,3.8,2.3c0,1.2-2.7,2.1-3.8,2.3C144.2,467.2,141.6,466.6,141.6,464.4z
			 M151.1,474.7c-0.9,1.5-3.1,2.9-4.7,1.4c-1.5-1.5-0.1-3.8,1.4-4.7c0.9-0.6,3.5-1.9,4.3-1C152.9,471.3,151.7,473.8,151.1,474.7z
			 M158.1,481c-2.2,0-2.7-2.6-2.3-4.3c0.3-1.1,1.1-3.8,2.3-3.8c1.2,0,2.1,2.7,2.3,3.8C160.8,478.4,160.3,481,158.1,481z
			 M158.1,471.8c-4,0-7.3-3.3-7.3-7.3c0-4,3.3-7.3,7.3-7.3c4,0,7.3,3.3,7.3,7.3C165.4,468.5,162.1,471.8,158.1,471.8z M169.8,476.1
			c-1.5,1.5-3.8,0.1-4.6-1.4c-0.6-0.9-1.8-3.5-1-4.3c0.8-0.8,3.4,0.5,4.3,1C169.9,472.4,171.3,474.6,169.8,476.1z M170.4,466.8
			c-1.1-0.3-3.8-1.1-3.8-2.3c0-1.2,2.7-2.1,3.8-2.3c1.7-0.4,4.3,0.1,4.3,2.3C174.6,466.6,172,467.2,170.4,466.8z"/>
	</g>
</g>
<g>
	<g>
		<g>
			<path fill="#D06519" d="M165.7,851.9h18.5c16.4,0,19.6-16.7,32.2-27.4c12.5-10.8,38.6-12,38.6-12v-2.3h-78.9h-69.2H28.3v2.3
				c0,0,26.1,1.2,38.6,12s15.9,27.4,32.2,27.4h18.5H165.7z"/>
		</g>
	</g>
</g>
<g>
	<g>
		<g>
			<path fill="#FFFFFF" d="M506.3,532.9h18.5c16.4,0,19.6-16.7,32.2-27.4c12.5-10.8,38.6-12,38.6-12v-2.3h-78.9h-69.2h-78.7v2.3
				c0,0,26.1,1.2,38.6,12c12.5,10.8,15.9,27.4,32.2,27.4h18.5H506.3z"/>
		</g>
	</g>
</g>
<g>
	<g>
		<g>
			<path fill="#FFFFFF" d="M528.4,445.6c0.4-0.4,0.8-0.8,1.3-1.1c-0.6-3.7-2.7-6.9-5.6-9c-3.4,2.5-5.6,6.5-5.5,11
				c0,4.5,2.3,8.5,5.8,10.8c0.2-0.1,0.3-0.2,0.4-0.3C524.1,452.9,525.3,448.7,528.4,445.6z"/>
			<path fill="#FFFFFF" d="M529.8,446.2c-3.2,3.2-4.3,7.6-3.6,11.7c4.1,0.7,8.5-0.6,11.7-3.8c3.2-3.2,4.3-7.6,3.6-11.7
				C537.4,441.7,533,443,529.8,446.2z"/>
		</g>
		<path fill="#FFFFFF" d="M539.6,480.5c-4.4,5.7-11.5,7.6-15.7,4.3c-4.3-3.3-4.2-10.6,0.3-16.3c4.4-5.7,11.4-7.6,15.7-4.3
			C544.1,467.5,544,474.8,539.6,480.5z"/>
		<path fill="#FFFFFF" d="M418.3,455.4c-0.5,13.1,9.2,25.9,23.2,29.8c14.1,4,27.8-2.2,32.7-14.1L418.3,455.4z M443.8,474.6
			c-7.9-2.2-14.1-6.1-13.8-13.4l5.4,1.5c-0.4,0.1-0.8,0.3-1.1,0.4c-1.2,0.6-2.5,2.3-1.6,3.8c1,1.5,2.8,0.6,3.6-0.6
			c0.4-0.6,1.3-2,1.4-3l6.5,1.8c-0.6,0.8-1.2,1.9-1.5,2.5c-0.8,1.8-0.9,5,1.3,5.7c2.2,0.6,3.5-2.3,3.5-4.3c0-0.7-0.1-1.9-0.3-3
			l6.5,1.8c-0.4,0.9-0.1,2.6,0,3.4c0.3,1.4,1.5,3.3,3,2.4c1.5-0.8,1-3.1,0.2-4.2c-0.2-0.2-0.5-0.6-0.8-0.9l5.3,1.5
			C458.8,476.7,451.8,476.8,443.8,474.6z"/>
		<g>
			<path fill="#FFFFFF" d="M488.3,429c-4,3.2-7.1,6.6-9.1,10c-1.3,2.2-2.2,4.4-2.7,6.6c-0.3-1-0.9-2-1.6-2.8l0.8-2.4
				c0.1-0.3,0.1-0.8-0.1-1.1c0,0-2.5-5.5,0.3-7c2.8-1.5,0.3-3.4,0.9-4.8c0.6-1.3,10.2-6.2,12.1-5.8c1.7,0.3,4.1,1.5,5.3,3.1
				C492.4,425.9,490.3,427.3,488.3,429z"/>
			<path fill="#FFFFFF" d="M490.5,430.5c1.9-1.6,3.9-2.9,5.7-4.1c0,0,0,0,0,0c0.8,1.7,1.7,4.4,1.7,4.4c0.3,0.2,0.8,0.5,1.2,0.6
				c0,0,3.7,1.3,0.8,3c-2.9,1.7-4.9,9.1-10.6,5.6c-1.5-0.9-9.3,6.2-9.6,7.6c-0.1,0.2-0.1,0.4-0.2,0.6l-0.7,0.3
				C479.3,442.4,483.2,436.4,490.5,430.5z"/>
		</g>
		<g>
			<path fill="#FFFFFF" d="M474.4,455.1l-3.8-4.1c-0.3-0.6-0.5-1.5-0.4-2.2c0,0,1.3-11.9-3.7-13.3c-5-1.4-2-6.4-3.5-8.6
				c-1.5-2.2-18.3-6.5-21-4.7c-2.3,1.5-5.5,5-6.6,8.8c3.4,1.3,7.2,2.9,11,5c7.5,4,13.7,8.8,18.3,14.2c2.5,2.9,5.6,6.6,7.6,10.1
				C472.7,458.4,473.4,456.6,474.4,455.1z"/>
			<g>
				<path fill="#FFFFFF" d="M471.7,465.7c0-0.2,0.1-2,0.2-2.6c-5.5-7.5-13.8-17.3-26.5-24.1c-3.6-1.9-7.2-3.5-10.5-4.8
					c0,0,0,0,0,0.1c-0.4,3.7-0.5,9.4-0.5,9.4c-0.3,0.6-1,1.3-1.5,1.8c0,0-5.1,4.4,0.1,6.1c5.2,1.7,11.5,14.8,18.6,5.1
					C453.3,454.5,470,462.8,471.7,465.7z"/>
			</g>
		</g>
		<path fill="#FFFFFF" d="M498.7,442.5c-12.1,0-22,9.8-22,22s9.8,22,22,22c12.1,0,22-9.8,22-22S510.8,442.5,498.7,442.5z
			 M505.7,454.1c0.9-1.5,3.1-2.9,4.6-1.4c1.5,1.5,0.1,3.8-1.4,4.7c-0.9,0.6-3.5,1.8-4.3,1C503.9,457.6,505.1,455.1,505.7,454.1z
			 M498.7,447.9c2.2,0,2.7,2.6,2.3,4.3c-0.3,1.1-1.1,3.8-2.3,3.8c-1.2,0-2.1-2.7-2.3-3.8C496,450.5,496.5,447.9,498.7,447.9z
			 M487,452.8c1.5-1.5,3.8-0.1,4.7,1.4c0.6,0.9,1.8,3.5,1,4.3c-0.8,0.8-3.4-0.5-4.3-1C486.9,456.5,485.5,454.3,487,452.8z
			 M482.2,464.4c0-2.2,2.6-2.7,4.3-2.3c1.1,0.3,3.8,1.1,3.8,2.3c0,1.2-2.7,2.1-3.8,2.3C484.8,467.2,482.2,466.6,482.2,464.4z
			 M491.7,474.7c-0.9,1.5-3.1,2.9-4.7,1.4c-1.5-1.5-0.1-3.8,1.4-4.7c0.9-0.6,3.5-1.9,4.3-1C493.5,471.3,492.2,473.8,491.7,474.7z
			 M498.7,481c-2.2,0-2.7-2.6-2.3-4.3c0.3-1.1,1.1-3.8,2.3-3.8c1.2,0,2.1,2.7,2.3,3.8C501.4,478.4,500.9,481,498.7,481z
			 M498.7,471.8c-4,0-7.3-3.3-7.3-7.3c0-4,3.3-7.3,7.3-7.3c4,0,7.3,3.3,7.3,7.3C506,468.5,502.7,471.8,498.7,471.8z M510.4,476.1
			c-1.5,1.5-3.8,0.1-4.6-1.4c-0.6-0.9-1.8-3.5-1-4.3c0.8-0.8,3.4,0.5,4.3,1C510.4,472.4,511.9,474.6,510.4,476.1z M510.9,466.8
			c-1.1-0.3-3.8-1.1-3.8-2.3c0-1.2,2.7-2.1,3.8-2.3c1.7-0.4,4.3,0.1,4.3,2.3C515.2,466.6,512.6,467.2,510.9,466.8z"/>
	</g>
</g>
<g>
	<g>
		<g>
			<path fill="#FFFFFF" d="M506.3,851.9h18.5c16.4,0,19.6-16.7,32.2-27.4c12.5-10.8,38.6-12,38.6-12v-2.3h-78.9h-69.2h-78.7v2.3
				c0,0,26.1,1.2,38.6,12c12.5,10.8,15.9,27.4,32.2,27.4h18.5H506.3z"/>
		</g>
	</g>
</g>
<g>
	<g>
		<path fill="#D06519" d="M70.3,803.9c5.6-5.7,15.3-10.7,27.6-14.3c12.3-3.5,27.1-5.6,43.1-5.6c0,0,0,0,0,0
			c21.3,0,40.6,3.7,54.4,9.6c6.9,3,12.5,6.5,16.2,10.3c0.5,0.5,1,1,1.4,1.6h3.3c-0.8-1.2-1.8-2.3-2.9-3.4
			c-6.1-6.2-16.2-11.3-28.7-14.9c-12.5-3.6-27.6-5.7-43.8-5.7c-21.6,0-41.2,3.7-55.4,9.8c-7.1,3-13,6.7-17.1,10.8
			c-1.1,1.1-2,2.2-2.9,3.4h3.3C69.3,805,69.8,804.5,70.3,803.9z"/>
		<path fill="#D06519" d="M100.8,793.9c11.3-3.1,25-4.9,39.8-4.9c0,0,0,0,0,0c19.7,0,37.5,3.2,50.3,8.4c5.7,2.3,10.4,5.1,13.8,8.1
			h3.7c-0.2-0.3-0.5-0.5-0.7-0.8c-5.7-5.6-15-10.1-26.6-13.3c-11.6-3.2-25.5-5-40.4-5c-19.9,0-38,3.2-51.2,8.6
			c-6.6,2.7-12,5.9-15.8,9.7c-0.3,0.3-0.5,0.5-0.7,0.8h3.7C81.8,800.8,90.3,796.8,100.8,793.9z"/>
		<path fill="#D06519" d="M103.7,798.1c10.4-2.7,22.9-4.2,36.5-4.2c0,0,0,0,0,0c18.1,0,34.4,2.7,46.1,7.2c3.3,1.3,6.3,2.7,8.8,4.3
			h4.5c-5.3-4.1-13-7.4-22.3-9.9c-10.6-2.7-23.4-4.3-37.1-4.3c-18.3,0-34.8,2.7-47,7.4c-4.9,1.9-9.1,4.1-12.4,6.7h4.5
			C90,802.6,96.3,800,103.7,798.1z"/>
		<path fill="#D06519" d="M106.6,802.4c9.4-2.2,20.9-3.5,33.2-3.5c0,0,0,0,0,0c16.4,0,31.3,2.2,41.9,6c0.5,0.2,1,0.4,1.5,0.6h6.1
			c-4.3-2.3-9.7-4.2-15.8-5.6c-9.7-2.3-21.3-3.5-33.7-3.5c-16.6,0-31.7,2.2-42.7,6.2c-2.5,0.9-4.7,1.9-6.8,3h6.2
			C99.5,804.3,102.9,803.3,106.6,802.4z"/>
		<path fill="#D06519" d="M139.4,803.9C139.4,803.9,139.5,803.9,139.4,803.9c8.6,0,16.7,0.6,23.9,1.6h12.2c-1.8-0.5-3.7-1-5.7-1.4
			c-8.7-1.9-19.2-2.8-30.4-2.8c-13.8,0-26.4,1.4-36.1,4.2h12.2C122.8,804.4,130.9,803.9,139.4,803.9z"/>
	</g>
	<g>
		<g>
			<path fill="#D06519" d="M253.1,721.7c-12.6,0.1-55.5,2.5-76.9,3.5c-20.1,1-27.6,0.7-34.6,1.1c-0.1-1.2-0.4-2.3-0.7-3.2
				c-1-3-3.7-5.6-7.2-6.8c-3.1-1.1-7.1-1.5-11.9-1.5v4.2c2,0.3,3.5,1.3,3.5,2.4c0,1.1-1.5,2.1-3.5,2.4v2.5c2,0.3,3.5,1.3,3.5,2.4
				c0,1.1-1.5,2.1-3.5,2.4v2.5c2,0.3,3.5,1.3,3.5,2.4c0,1.1-1.5,2.1-3.5,2.4v4.2c4.6,0,8.4-0.3,11.5-1.3c4.2-1.4,6.5-3.9,7.7-7.1
				c0.3-1,0.5-2,0.7-3.2c7.1,0.4,14.9,0.1,35,1.1c22.5,1.1,66.2,3.5,76.5,3.4C257.1,735.6,257.1,721.7,253.1,721.7z"/>
			<g>
				<path fill="#D06519" d="M87.7,725c0.1,0.7,3,0.7,7,0.7v-1.4C90.7,724.3,87.6,724.4,87.7,725z"/>
				<path fill="#D06519" d="M87.7,732.3c0,0.6,3,0.7,7,0.7v-1.3C92,731.7,87.7,731.8,87.7,732.3z"/>
				<path fill="#D06519" d="M87.5,738.6c0,0.3,3,0.9,7.2,1.6v-1.9C90.5,738.2,87.5,738.3,87.5,738.6z"/>
				<path fill="#D06519" d="M87.6,718.6c0,0.4,3,0.5,7.1,0.6v-2.2C90.5,717.5,87.6,718.2,87.6,718.6z"/>
			</g>
		</g>
		<g>
			<path fill="#D06519" d="M98,713.3c-0.7,0-1.3,0.6-1.3,1.3v30v42.9c0,0.7,0.6,1.3,1.3,1.3c0.7,0,1.3-0.6,1.3-1.3v-42.9v-30
				C99.3,713.8,98.7,713.3,98,713.3z"/>
			<path fill="#D06519" d="M113.4,711.8c-0.7,0-1.3,0.6-1.3,1.3v31.5v39.6c0,0.7,0.6,1.3,1.3,1.3c0.7,0,1.3-0.6,1.3-1.3v-39.6v-31.5
				C114.7,712.4,114.1,711.8,113.4,711.8z"/>
			<path fill="#D06519" d="M103.1,712.5c-0.7,0-1.3,0.6-1.3,1.3v30.7v41.8c0,0.7,0.6,1.3,1.3,1.3c0.7,0,1.3-0.6,1.3-1.3v-41.8v-30.7
				C104.4,713.1,103.8,712.5,103.1,712.5z"/>
			<path fill="#D06519" d="M108.3,712.2c-0.7,0-1.3,0.6-1.3,1.3v31.1v40.3c0,0.7,0.6,1.3,1.3,1.3c0.7,0,1.3-0.6,1.3-1.3v-40.3v-31.1
				C109.5,712.7,109,712.2,108.3,712.2z"/>
			<path fill="#D06519" d="M118.5,711.8c-0.7,0-1.3,0.6-1.3,1.3v31.5v38.9c0,0.7,0.6,1.3,1.3,1.3c0.7,0,1.3-0.6,1.3-1.3v-38.9v-31.5
				C119.8,712.4,119.2,711.8,118.5,711.8z"/>
		</g>
	</g>
</g>
<g>
	<g>
		<path fill="#FFFFFF" d="M410.9,803.9c5.6-5.7,15.3-10.7,27.6-14.3c12.3-3.5,27.1-5.6,43.1-5.6c0,0,0,0,0,0
			c21.3,0,40.6,3.7,54.4,9.6c6.9,3,12.5,6.5,16.2,10.3c0.5,0.5,1,1,1.4,1.6h3.3c-0.8-1.2-1.8-2.3-2.9-3.4
			c-6.1-6.2-16.2-11.3-28.7-14.9c-12.5-3.6-27.6-5.7-43.8-5.7c-21.6,0-41.2,3.7-55.4,9.8c-7.1,3-13,6.7-17.1,10.8
			c-1.1,1.1-2,2.2-2.9,3.4h3.3C409.9,805,410.4,804.5,410.9,803.9z"/>
		<path fill="#FFFFFF" d="M441.4,793.9c11.3-3.1,25-4.9,39.8-4.9c0,0,0,0,0,0c19.7,0,37.5,3.2,50.3,8.4c5.7,2.3,10.4,5.1,13.8,8.1
			h3.7c-0.2-0.3-0.5-0.5-0.7-0.8c-5.7-5.6-15-10.1-26.6-13.3c-11.6-3.2-25.5-5-40.4-5c-19.9,0-38,3.2-51.2,8.6
			c-6.6,2.7-12,5.9-15.8,9.7c-0.3,0.3-0.5,0.5-0.7,0.8h3.7C422.4,800.8,430.9,796.8,441.4,793.9z"/>
		<path fill="#FFFFFF" d="M444.3,798.1c10.4-2.7,22.9-4.2,36.5-4.2c0,0,0,0,0,0c18.1,0,34.4,2.7,46.1,7.2c3.3,1.3,6.3,2.7,8.8,4.3
			h4.5c-5.3-4.1-13-7.4-22.3-9.9c-10.6-2.7-23.4-4.3-37.1-4.3c-18.3,0-34.8,2.7-47,7.4c-4.9,1.9-9.1,4.1-12.4,6.7h4.5
			C430.6,802.6,436.9,800,444.3,798.1z"/>
		<path fill="#FFFFFF" d="M447.2,802.4c9.4-2.2,20.9-3.5,33.2-3.5c0,0,0,0,0,0c16.4,0,31.3,2.2,41.9,6c0.5,0.2,1,0.4,1.5,0.6h6.1
			c-4.3-2.3-9.7-4.2-15.8-5.6c-9.7-2.3-21.3-3.5-33.7-3.5c-16.6,0-31.7,2.2-42.7,6.2c-2.5,0.9-4.7,1.9-6.8,3h6.2
			C440.1,804.3,443.5,803.3,447.2,802.4z"/>
		<path fill="#FFFFFF" d="M480,803.9C480,803.9,480,803.9,480,803.9c8.6,0,16.7,0.6,23.9,1.6h12.2c-1.8-0.5-3.7-1-5.7-1.4
			c-8.7-1.9-19.2-2.8-30.4-2.8c-13.8,0-26.4,1.4-36.1,4.2h12.2C463.3,804.4,471.4,803.9,480,803.9z"/>
	</g>
	<g>
		<g>
			<path fill="#FFFFFF" d="M593.7,721.7c-12.6,0.1-55.5,2.5-76.9,3.5c-20.1,1-27.6,0.7-34.6,1.1c-0.1-1.2-0.4-2.3-0.7-3.2
				c-1-3-3.7-5.6-7.2-6.8c-3.1-1.1-7.1-1.5-11.9-1.5v4.2c2,0.3,3.5,1.3,3.5,2.4c0,1.1-1.5,2.1-3.5,2.4v2.5c2,0.3,3.5,1.3,3.5,2.4
				c0,1.1-1.5,2.1-3.5,2.4v2.5c2,0.3,3.5,1.3,3.5,2.4c0,1.1-1.5,2.1-3.5,2.4v4.2c4.6,0,8.4-0.3,11.5-1.3c4.2-1.4,6.5-3.9,7.7-7.1
				c0.3-1,0.5-2,0.7-3.2c7.1,0.4,14.9,0.1,35,1.1c22.5,1.1,66.2,3.5,76.5,3.4C597.7,735.6,597.7,721.7,593.7,721.7z"/>
			<g>
				<path fill="#FFFFFF" d="M428.3,725c0.1,0.7,3,0.7,7,0.7v-1.4C431.2,724.3,428.2,724.4,428.3,725z"/>
				<path fill="#FFFFFF" d="M428.2,732.3c0,0.6,3,0.7,7,0.7v-1.3C432.6,731.7,428.2,731.8,428.2,732.3z"/>
				<path fill="#FFFFFF" d="M428.1,738.6c0,0.3,3,0.9,7.2,1.6v-1.9C431.1,738.2,428.1,738.3,428.1,738.6z"/>
				<path fill="#FFFFFF" d="M428.2,718.6c0,0.4,3,0.5,7.1,0.6v-2.2C431.1,717.5,428.2,718.2,428.2,718.6z"/>
			</g>
		</g>
		<g>
			<path fill="#FFFFFF" d="M438.6,713.3c-0.7,0-1.3,0.6-1.3,1.3v30v42.9c0,0.7,0.6,1.3,1.3,1.3c0.7,0,1.3-0.6,1.3-1.3v-42.9v-30
				C439.9,713.8,439.3,713.3,438.6,713.3z"/>
			<path fill="#FFFFFF" d="M454,711.8c-0.7,0-1.3,0.6-1.3,1.3v31.5v39.6c0,0.7,0.6,1.3,1.3,1.3c0.7,0,1.3-0.6,1.3-1.3v-39.6v-31.5
				C455.2,712.4,454.7,711.8,454,711.8z"/>
			<path fill="#FFFFFF" d="M443.7,712.5c-0.7,0-1.3,0.6-1.3,1.3v30.7v41.8c0,0.7,0.6,1.3,1.3,1.3c0.7,0,1.3-0.6,1.3-1.3v-41.8v-30.7
				C445,713.1,444.4,712.5,443.7,712.5z"/>
			<path fill="#FFFFFF" d="M448.8,712.2c-0.7,0-1.3,0.6-1.3,1.3v31.1v40.3c0,0.7,0.6,1.3,1.3,1.3c0.7,0,1.3-0.6,1.3-1.3v-40.3v-31.1
				C450.1,712.7,449.5,712.2,448.8,712.2z"/>
			<path fill="#FFFFFF" d="M459.1,711.8c-0.7,0-1.3,0.6-1.3,1.3v31.5v38.9c0,0.7,0.6,1.3,1.3,1.3c0.7,0,1.3-0.6,1.3-1.3v-38.9v-31.5
				C460.4,712.4,459.8,711.8,459.1,711.8z"/>
		</g>
	</g>
</g>
<g>
	<g>
		<g>
			<path fill="#D06519" d="M154,1125.7c-1.6,0.5-2.6,1.2-2.8,1.9c-0.1,0.3-0.1,0.6,0.1,1c7.5,0,25-0.9,30.6-8.3
				c-2-1.4-3.6-2.2-5.2-2.8c-1.4-0.5-2.9-1.1-4.3-1.9c-0.9-0.5-1.7-1-2.8-1.7c-0.2-0.1-0.4-0.3-0.7-0.4c-0.1-0.1-0.2-0.1-0.3-0.2
				c0.2,1.2,0.1,2.4-0.3,3.6c-1.8,4.6-8.9,7-13.5,8.6L154,1125.7z"/>
			<path fill="#D06519" d="M190.2,1124.7c-0.5-1.1-1.8-2.5-5-3.2c0,0.1-0.1,0.2-0.2,0.2c-6,8.8-23.9,10.1-34,10.1c-1,0-1.9,0-2.7,0
				c-2,1.5-1.7,4.1-1.3,5.5c2,0.4,5.2,0.9,9,0.9C165,1138.1,178,1135.8,190.2,1124.7z"/>
			<path fill="#D06519" d="M191.8,1127.7c-12.8,11.3-26.4,13.7-35.7,13.7c-2.6,0-5.1-0.2-7.6-0.6c-1.3-0.2-2.2-0.4-2.7-0.5
				c-1,1.3-4.2,6.3-1.4,9.5h18.3c15-2.6,26.4-11.5,32-16.7C194.8,1130.6,193,1128.8,191.8,1127.7z"/>
			<path fill="#D06519" d="M201.7,1147.5c0.8-3.6-3-9.8-4.6-11.9c-3.5,5.7-13.6,11-20.9,14.2h23.4
				C200.8,1149.4,201.5,1148.7,201.7,1147.5z"/>
		</g>
		<path fill="#D06519" d="M192,1190.1c-0.6,1.6-2.6,2.9-4.4,2.9h-30.1c-1.8,0-3.8-1.3-4.4-2.9l-13.4-35.1c-0.6-1.6,0.4-2.9,2.2-2.9
			h61.3c1.8,0,2.8,1.3,2.2,2.9L192,1190.1z"/>
	</g>
	<g>
		<path fill="#D06519" d="M179.3,1072.6c-0.8-1.2-1.9-1.8-2.4-1.5c-0.1,0-0.1,0.1-0.1,0.1l0,0l-36.3,25c0,0,0,0,0,0
			c-1-2.9-2.5-5.5-4.4-7.5v0l16.7-36.6l0,0h0c0,0,0.1-0.1,0.1-0.1c0.3-0.6-0.6-1.5-1.9-2.1c-1.3-0.6-2.6-0.6-2.8,0
			c0,0.1,0,0.1,0,0.2l0,0l-16.3,35.7c0,0,0,0,0,0c-1.7-0.8-3.6-1.2-5.7-1.2c0,0-0.1,0-0.1,0c-2.8-3.1-6.9-5.1-11.4-5.1
			c-4.9,0-9.3,2.3-12.1,6c-1.6-0.6-3.3-0.9-5-0.9c-8.5,0-15.4,6.9-15.4,15.4c0,0,0,1.7-0.3,4.1h59.9c0.1-0.8,0.1-1.5,0-2.4
			c0,0,0,0,0,0.1l38-26.1l0,0h0c0.1,0,0.1,0,0.2-0.1C180.4,1075.1,180.2,1073.8,179.3,1072.6z M148.5,1051c0,0,0.1,0.1,0.1,0.1
			C148.6,1051.1,148.6,1051.1,148.5,1051z M151.6,1052.5C151.7,1052.5,151.7,1052.5,151.6,1052.5
			C151.7,1052.5,151.7,1052.5,151.6,1052.5z M152.3,1052.4C152.3,1052.4,152.3,1052.4,152.3,1052.4
			C152.3,1052.4,152.3,1052.4,152.3,1052.4z M152,1052.5C152,1052.5,152,1052.5,152,1052.5C152,1052.5,152,1052.5,152,1052.5z
			 M151.3,1052.4C151.3,1052.4,151.3,1052.4,151.3,1052.4C151.3,1052.4,151.3,1052.4,151.3,1052.4z M150.9,1052.4
			C150.9,1052.4,150.9,1052.4,150.9,1052.4C150.9,1052.4,150.9,1052.4,150.9,1052.4z M149.5,1051.8c-0.1-0.1-0.2-0.1-0.3-0.2
			C149.3,1051.6,149.4,1051.7,149.5,1051.8z M150,1052c-0.2-0.1-0.3-0.2-0.5-0.2C149.7,1051.9,149.8,1052,150,1052z M148.8,1051.3
			c0.1,0.1,0.1,0.1,0.2,0.2C149,1051.4,148.9,1051.4,148.8,1051.3z M148.4,1050.9C148.4,1050.8,148.4,1050.8,148.4,1050.9
			C148.4,1050.8,148.4,1050.8,148.4,1050.9z M148.2,1050.6C148.2,1050.6,148.2,1050.6,148.2,1050.6
			C148.2,1050.6,148.2,1050.6,148.2,1050.6z M133,1086.4c-0.1,0-0.2-0.1-0.3-0.1C132.8,1086.3,132.9,1086.3,133,1086.4z
			 M135.1,1087.9C135.1,1087.9,135.1,1087.9,135.1,1087.9C135.1,1087.9,135.1,1087.9,135.1,1087.9z M134.1,1087.1
			c0,0-0.1-0.1-0.1-0.1C134,1087,134.1,1087,134.1,1087.1z M141.5,1099.9c0.1,0.3,0.1,0.6,0.2,0.9
			C141.6,1100.6,141.6,1100.2,141.5,1099.9z M141,1097.9c0,0.1,0,0.2,0.1,0.2C141.1,1098,141.1,1098,141,1097.9z M179.3,1075.5
			C179.2,1075.5,179.2,1075.5,179.3,1075.5C179.2,1075.5,179.2,1075.5,179.3,1075.5z M179,1075.4
			C178.9,1075.4,178.9,1075.4,179,1075.4C178.9,1075.4,178.9,1075.4,179,1075.4z M177,1073.2C177,1073.2,177,1073.1,177,1073.2
			C177,1073.1,177,1073.2,177,1073.2z M176.7,1071.7C176.7,1071.8,176.7,1071.8,176.7,1071.7
			C176.7,1071.8,176.7,1071.8,176.7,1071.7z M176.7,1072.4C176.7,1072.4,176.7,1072.4,176.7,1072.4
			C176.7,1072.4,176.7,1072.4,176.7,1072.4z M177.9,1074.5c0.1,0.1,0.1,0.1,0.2,0.2C178,1074.6,177.9,1074.6,177.9,1074.5z
			 M177.4,1074c0.1,0.1,0.2,0.3,0.3,0.4C177.6,1074.2,177.5,1074.1,177.4,1074z M178.7,1075.2c0,0-0.1-0.1-0.1-0.1
			C178.6,1075.2,178.6,1075.2,178.7,1075.2z M178.4,1075c-0.1,0-0.1-0.1-0.2-0.1C178.3,1074.9,178.3,1074.9,178.4,1075z
			 M179.5,1075.5C179.5,1075.5,179.5,1075.5,179.5,1075.5C179.5,1075.5,179.5,1075.5,179.5,1075.5z"/>
		<path fill="#D06519" d="M115.3,1141.4c17.5-2,31.8-16.7,29.1-34.6H78.2c-2.5,17.7,11.4,32.6,29.1,34.6h1.7v16.2
			c-7.2,0.2-12.8,1.6-12.8,3.2c0,1.8,6.8,3.2,15.1,3.2s15.1-1.4,15.1-3.2c0-1.6-5.8-3-13.2-3.2v-16.2H115.3z"/>
	</g>
</g>
<g>
	<g>
		<g>
			<path fill="#FFFFFF" d="M494.6,1125.7c-1.6,0.5-2.6,1.2-2.8,1.9c-0.1,0.3-0.1,0.6,0.1,1c7.5,0,25-0.9,30.6-8.3
				c-2-1.4-3.6-2.2-5.2-2.8c-1.4-0.5-2.9-1.1-4.3-1.9c-0.9-0.5-1.7-1-2.8-1.7c-0.2-0.1-0.4-0.3-0.7-0.4c-0.1-0.1-0.2-0.1-0.3-0.2
				c0.2,1.2,0.1,2.4-0.3,3.6c-1.8,4.6-8.9,7-13.5,8.6L494.6,1125.7z"/>
			<path fill="#FFFFFF" d="M530.8,1124.7c-0.5-1.1-1.8-2.5-5-3.2c0,0.1-0.1,0.2-0.2,0.2c-6,8.8-23.9,10.1-34,10.1c-1,0-1.9,0-2.7,0
				c-2,1.5-1.7,4.1-1.3,5.5c2,0.4,5.2,0.9,9,0.9C505.5,1138.1,518.6,1135.8,530.8,1124.7z"/>
			<path fill="#FFFFFF" d="M532.4,1127.7c-12.8,11.3-26.4,13.7-35.7,13.7c-2.6,0-5.1-0.2-7.6-0.6c-1.3-0.2-2.2-0.4-2.7-0.5
				c-1,1.3-4.2,6.3-1.4,9.5h18.3c15-2.6,26.4-11.5,32-16.7C535.3,1130.6,533.6,1128.8,532.4,1127.7z"/>
			<path fill="#FFFFFF" d="M542.3,1147.5c0.8-3.6-3-9.8-4.6-11.9c-3.5,5.7-13.6,11-20.9,14.2h23.4
				C541.4,1149.4,542,1148.7,542.3,1147.5z"/>
		</g>
		<path fill="#FFFFFF" d="M532.6,1190.1c-0.6,1.6-2.6,2.9-4.4,2.9H498c-1.8,0-3.8-1.3-4.4-2.9l-13.4-35.1c-0.6-1.6,0.4-2.9,2.2-2.9
			h61.3c1.8,0,2.8,1.3,2.2,2.9L532.6,1190.1z"/>
	</g>
	<g>
		<path fill="#FFFFFF" d="M519.9,1072.6c-0.8-1.2-1.9-1.8-2.4-1.5c-0.1,0-0.1,0.1-0.1,0.1l0,0l-36.3,25c0,0,0,0,0,0
			c-1-2.9-2.5-5.5-4.4-7.5v0l16.7-36.6l0,0h0c0,0,0.1-0.1,0.1-0.1c0.3-0.6-0.6-1.5-1.9-2.1c-1.3-0.6-2.6-0.6-2.8,0
			c0,0.1,0,0.1,0,0.2l0,0l-16.3,35.7c0,0,0,0,0,0c-1.7-0.8-3.6-1.2-5.7-1.2c0,0-0.1,0-0.1,0c-2.8-3.1-6.9-5.1-11.4-5.1
			c-4.9,0-9.3,2.3-12.1,6c-1.6-0.6-3.3-0.9-5-0.9c-8.5,0-15.4,6.9-15.4,15.4c0,0,0,1.7-0.3,4.1h59.9c0.1-0.8,0.1-1.5,0-2.4
			c0,0,0,0,0,0.1l38-26.1l0,0h0c0.1,0,0.1,0,0.2-0.1C521,1075.1,520.7,1073.8,519.9,1072.6z M489.1,1051c0,0,0.1,0.1,0.1,0.1
			C489.2,1051.1,489.2,1051.1,489.1,1051z M492.2,1052.5C492.2,1052.5,492.2,1052.5,492.2,1052.5
			C492.2,1052.5,492.2,1052.5,492.2,1052.5z M492.9,1052.4C492.9,1052.4,492.9,1052.4,492.9,1052.4
			C492.9,1052.4,492.9,1052.4,492.9,1052.4z M492.6,1052.5C492.6,1052.5,492.6,1052.5,492.6,1052.5
			C492.6,1052.5,492.6,1052.5,492.6,1052.5z M491.9,1052.4C491.9,1052.4,491.8,1052.4,491.9,1052.4
			C491.8,1052.4,491.9,1052.4,491.9,1052.4z M491.5,1052.4C491.4,1052.4,491.4,1052.4,491.5,1052.4
			C491.4,1052.4,491.4,1052.4,491.5,1052.4z M490.1,1051.8c-0.1-0.1-0.2-0.1-0.3-0.2C489.8,1051.6,489.9,1051.7,490.1,1051.8z
			 M490.6,1052c-0.2-0.1-0.3-0.2-0.5-0.2C490.3,1051.9,490.4,1052,490.6,1052z M489.4,1051.3c0.1,0.1,0.1,0.1,0.2,0.2
			C489.5,1051.4,489.5,1051.4,489.4,1051.3z M489,1050.9C488.9,1050.8,488.9,1050.8,489,1050.9
			C488.9,1050.8,488.9,1050.8,489,1050.9z M488.8,1050.6C488.8,1050.6,488.8,1050.6,488.8,1050.6
			C488.8,1050.6,488.8,1050.6,488.8,1050.6z M473.6,1086.4c-0.1,0-0.2-0.1-0.3-0.1C473.4,1086.3,473.5,1086.3,473.6,1086.4z
			 M475.7,1087.9C475.7,1087.9,475.7,1087.9,475.7,1087.9C475.7,1087.9,475.7,1087.9,475.7,1087.9z M474.7,1087.1
			c0,0-0.1-0.1-0.1-0.1C474.6,1087,474.6,1087,474.7,1087.1z M482.1,1099.9c0.1,0.3,0.1,0.6,0.2,0.9
			C482.2,1100.6,482.1,1100.2,482.1,1099.9z M481.6,1097.9c0,0.1,0,0.2,0.1,0.2C481.6,1098,481.6,1098,481.6,1097.9z M519.8,1075.5
			C519.8,1075.5,519.8,1075.5,519.8,1075.5C519.8,1075.5,519.8,1075.5,519.8,1075.5z M519.6,1075.4
			C519.5,1075.4,519.5,1075.4,519.6,1075.4C519.5,1075.4,519.5,1075.4,519.6,1075.4z M517.6,1073.2
			C517.6,1073.2,517.6,1073.1,517.6,1073.2C517.6,1073.1,517.6,1073.2,517.6,1073.2z M517.2,1071.7
			C517.2,1071.8,517.2,1071.8,517.2,1071.7C517.2,1071.8,517.2,1071.8,517.2,1071.7z M517.3,1072.4
			C517.3,1072.4,517.3,1072.4,517.3,1072.4C517.3,1072.4,517.3,1072.4,517.3,1072.4z M518.4,1074.5c0.1,0.1,0.1,0.1,0.2,0.2
			C518.6,1074.6,518.5,1074.6,518.4,1074.5z M518,1074c0.1,0.1,0.2,0.3,0.3,0.4C518.2,1074.2,518.1,1074.1,518,1074z M519.3,1075.2
			c0,0-0.1-0.1-0.1-0.1C519.2,1075.2,519.2,1075.2,519.3,1075.2z M518.9,1075c-0.1,0-0.1-0.1-0.2-0.1
			C518.8,1074.9,518.9,1074.9,518.9,1075z M520,1075.5C520,1075.5,520.1,1075.5,520,1075.5C520.1,1075.5,520,1075.5,520,1075.5z"/>
		<path fill="#FFFFFF" d="M455.9,1141.4c17.5-2,31.8-16.7,29.1-34.6h-66.2c-2.5,17.7,11.4,32.6,29.1,34.6h1.7v16.2
			c-7.2,0.2-12.8,1.6-12.8,3.2c0,1.8,6.8,3.2,15.1,3.2s15.1-1.4,15.1-3.2c0-1.6-5.8-3-13.2-3.2v-16.2H455.9z"/>
	</g>
</g>
<g>
	<path fill="#D06519" d="M112.4,1429.8c0.1-0.8-2.2-27.6-2.2-27.6c0.6-0.5,0.9-1.2,0.9-2.1v-2.4c0-1.6-1.3-3.5-2.8-3.5H98.1
		c-1.6,0-2.8,1.9-2.8,3.5v2.4c0,0.8,0.4,1.6,0.9,2.1c0,0.1-2.3,26.9-2.2,27.6c-5.4,3.2-9,9-9,15.7v31.1v23.7v11.4
		c0,5,4.1,7.8,9.1,7.8h18.2c5,0,9.1-2.8,9.1-7.8v-11.4v-23.7v-31.1C121.3,1438.8,117.8,1433,112.4,1429.8z M95.3,1504
		c0,1.1-0.9,2.1-2.1,2.1s-2.1-0.9-2.1-2.1v-53.5c0-1.1,0.9-2.1,2.1-2.1s2.1,0.9,2.1,2.1V1504z"/>
	<path fill="#D06519" d="M198.4,1402.8l-1.4-2.3l-25.3,15.3l-10.7,41.7h-29.8c-2.1,0-3.6,1.7-3.4,3.7l6,69.3c0.2,2,2,3.7,4.1,3.7
		h22.8c2.1,0,3.9-1.7,4.1-3.7l5.9-69.3c0.2-2-1.4-3.7-3.4-3.7h-3.4l10.3-40L198.4,1402.8z M140.7,1522.3c-1.1,0.1-2.1-0.8-2.2-1.9
		l-3.2-43.9c-0.1-1.1,0.8-2.1,1.9-2.2c1.1-0.1,2.1,0.8,2.2,1.9l3.2,43.9C142.7,1521.2,141.9,1522.2,140.7,1522.3z M151.3,1520.3
		c0,1.1-0.9,2.1-2.1,2.1c-1.1,0-2.1-0.9-2.1-2.1v-44c0-1.1,0.9-2.1,2.1-2.1c1.1,0,2.1,0.9,2.1,2.1V1520.3z M160,1520.4
		c-0.1,1.1-1.1,2-2.2,1.9c-1.1-0.1-2-1.1-1.9-2.2l3.2-43.9c0.1-1.1,1.1-2,2.2-1.9c1.1,0.1,2,1.1,1.9,2.2L160,1520.4z"/>
</g>
<g>
	<path fill="#FFFFFF" d="M452.9,1429.8c0.1-0.8-2.2-27.6-2.2-27.6c0.6-0.5,0.9-1.2,0.9-2.1v-2.4c0-1.6-1.3-3.5-2.8-3.5h-10.2
		c-1.6,0-2.8,1.9-2.8,3.5v2.4c0,0.8,0.4,1.6,0.9,2.1c0,0.1-2.3,26.9-2.2,27.6c-5.4,3.2-9,9-9,15.7v31.1v23.7v11.4
		c0,5,4.1,7.8,9.1,7.8h18.2c5,0,9.1-2.8,9.1-7.8v-11.4v-23.7v-31.1C461.9,1438.8,458.3,1433,452.9,1429.8z M435.8,1504
		c0,1.1-0.9,2.1-2.1,2.1s-2.1-0.9-2.1-2.1v-53.5c0-1.1,0.9-2.1,2.1-2.1s2.1,0.9,2.1,2.1V1504z"/>
	<path fill="#FFFFFF" d="M539,1402.8l-1.4-2.3l-25.3,15.3l-10.7,41.7h-29.8c-2.1,0-3.6,1.7-3.4,3.7l6,69.3c0.2,2,2,3.7,4.1,3.7h22.8
		c2.1,0,3.9-1.7,4.1-3.7l5.9-69.3c0.2-2-1.4-3.7-3.4-3.7h-3.4l10.3-40L539,1402.8z M481.3,1522.3c-1.1,0.1-2.1-0.8-2.2-1.9
		l-3.2-43.9c-0.1-1.1,0.8-2.1,1.9-2.2c1.1-0.1,2.1,0.8,2.2,1.9l3.2,43.9C483.3,1521.2,482.4,1522.2,481.3,1522.3z M491.9,1520.3
		c0,1.1-0.9,2.1-2.1,2.1s-2.1-0.9-2.1-2.1v-44c0-1.1,0.9-2.1,2.1-2.1s2.1,0.9,2.1,2.1V1520.3z M500.5,1520.4c-0.1,1.1-1.1,2-2.2,1.9
		c-1.1-0.1-2-1.1-1.9-2.2l3.2-43.9c0.1-1.1,1.1-2,2.2-1.9c1.1,0.1,2,1.1,1.9,2.2L500.5,1520.4z"/>
</g>
<g>
	<g>
		<path fill="#D06519" d="M191.2,1772.2c-9.5,1.4-16.9,11.4-16.9,23.5c0,12.1,7.4,22.1,16.9,23.5V1772.2z"/>
		<path fill="#D06519" d="M195.6,1772.2v47c9.5-1.4,16.9-11.4,16.9-23.5C212.6,1783.6,205.2,1773.6,195.6,1772.2z"/>
	</g>
	<g>
		<path fill="#D06519" d="M175.8,1825.9c-2.3-4.5-7.7-6.8-12.6-5.8c0.1-1,0.1-2,0.1-3.1c0-0.1,0-0.2,0-0.3c0-0.1,0-0.1,0-0.2
			c0-0.5,0-0.9,0-1.4c0,0.3-0.1,0.5-0.2,0.8c-0.2-0.3-0.4-0.5-0.7-0.8h-1.1H72.9h-1.1c-0.3,0.3-0.6,0.5-0.7,0.8
			c-0.2-0.3-0.2-0.5-0.2-0.8c0,0.5,0,0.9,0,1.4c0,0.1,0,0.1,0,0.2c0,0.1,0,0.2,0,0.3c0.8,32.4,20.9,60.5,45.7,60.5
			c0.2,0,0.4,0,0.5,0c0.2,0,0.3,0,0.5,0c12.3,0,23.5-6.4,31.7-16.9c16.5-4.4,23.3-12.2,26.1-18.1
			C178.6,1835.9,177.6,1829.4,175.8,1825.9z M170.8,1840.4c-2,4.2-6.6,9.5-16.8,13.4c4.3-7.5,7.4-16.4,8.7-26.1
			c3.8-1,7.6-1.3,8.6,0.6C172.5,1830.7,173.2,1835.4,170.8,1840.4z"/>
	</g>
</g>
<g>
	<path fill="#D06519" d="M123,1737.1c-3.2,5.2-5.5,10.7-6.4,16.1s-0.3,10.9,2,15.9c0.5,1.2,1.2,2.4,2,3.6c0.4,0.5,0.8,1.2,1.2,1.9
		c0.4,0.7,0.8,1.3,1.2,2c1.6,2.8,2.8,5.7,3.5,8.9c0.7,3.1,0.7,6.4-0.3,9.6c-0.5,1.6-1.2,3.1-2.3,4.4s-2.3,2.5-3.7,3.3l-0.4-0.4
		c0.9-1.2,1.6-2.5,2-3.9s0.7-2.7,0.7-4c0.1-2.7-0.4-5.3-1.3-7.9c-0.9-2.5-2.3-5.1-3.7-7.5c-0.4-0.7-0.8-1.2-1.2-1.9
		c-0.4-0.5-0.8-1.2-1.3-1.9c-0.9-1.3-1.7-2.8-2.3-4.4c-0.7-1.5-1.2-3.1-1.5-4.7c-0.4-1.6-0.5-3.2-0.7-4.8c-0.1-3.2,0.4-6.4,1.3-9.3
		c0.9-3.1,2.4-5.9,4.1-8.4c1.7-2.7,3.9-5.1,6.4-7.1L123,1737.1z"/>
	<path fill="#D06519" d="M93.3,1754.3c-2.4,3.9-4.1,7.9-4.8,11.9c-0.7,4-0.3,8.1,1.5,11.7c0.4,0.9,0.9,1.9,1.5,2.7
		c0.3,0.4,0.7,0.9,0.9,1.5s0.7,1.1,0.9,1.5c1.2,2,2.1,4.3,2.5,6.5c0.5,2.3,0.5,4.8-0.3,7.1c-0.4,1.2-0.9,2.3-1.6,3.2
		c-0.8,0.9-1.6,1.9-2.8,2.4l-0.3-0.3c0.7-0.9,1.2-1.9,1.5-2.8s0.5-2,0.5-2.9c0.1-2-0.3-4-1.1-5.9c-0.7-1.9-1.6-3.7-2.8-5.6
		c-0.3-0.4-0.5-0.9-0.8-1.3c-0.3-0.4-0.7-0.9-0.9-1.5c-0.7-1.1-1.2-2.1-1.7-3.2s-0.8-2.3-1.1-3.5c-0.3-1.2-0.4-2.4-0.5-3.5
		c-0.1-2.4,0.3-4.7,0.9-6.9c0.7-2.3,1.7-4.3,3.1-6.3c1.3-1.9,2.9-3.7,4.8-5.2L93.3,1754.3z"/>
	<path fill="#D06519" d="M150.4,1754.3c-2.4,3.9-4.1,7.9-4.8,11.9c-0.7,4-0.3,8.1,1.5,11.7c0.4,0.9,0.9,1.9,1.5,2.7
		c0.3,0.4,0.7,0.9,0.9,1.5c0.3,0.5,0.7,1.1,0.9,1.5c1.2,2,2.1,4.3,2.5,6.5c0.5,2.3,0.5,4.8-0.3,7.1c-0.4,1.2-0.9,2.3-1.6,3.2
		c-0.8,0.9-1.6,1.9-2.8,2.4l-0.3-0.3c0.7-0.9,1.2-1.9,1.5-2.8c0.3-0.9,0.5-2,0.5-2.9c0.1-2-0.3-4-1.1-5.9c-0.7-1.9-1.6-3.7-2.8-5.6
		c-0.3-0.4-0.5-0.9-0.8-1.3c-0.3-0.4-0.7-0.9-0.9-1.5c-0.7-1.1-1.2-2.1-1.7-3.2c-0.5-1.1-0.8-2.3-1.1-3.5c-0.3-1.2-0.4-2.4-0.5-3.5
		c-0.1-2.4,0.3-4.7,0.9-6.9c0.7-2.3,1.7-4.3,3.1-6.3c1.3-1.9,2.9-3.7,4.8-5.2L150.4,1754.3z"/>
</g>
<g>
	<g>
		<path fill="#FFFFFF" d="M531.7,1772.2c-9.5,1.4-16.9,11.4-16.9,23.5c0,12.1,7.4,22.1,16.9,23.5V1772.2z"/>
		<path fill="#FFFFFF" d="M536.2,1772.2v47c9.5-1.4,16.9-11.4,16.9-23.5C553.2,1783.6,545.8,1773.6,536.2,1772.2z"/>
	</g>
	<g>
		<path fill="#FFFFFF" d="M516.4,1825.9c-2.3-4.5-7.7-6.8-12.6-5.8c0.1-1,0.1-2,0.1-3.1c0-0.1,0-0.2,0-0.3c0-0.1,0-0.1,0-0.2
			c0-0.5,0-0.9,0-1.4c0,0.3-0.1,0.5-0.2,0.8c-0.2-0.3-0.4-0.5-0.7-0.8h-1.1h-88.5h-1.1c-0.3,0.3-0.6,0.5-0.7,0.8
			c-0.2-0.3-0.2-0.5-0.2-0.8c0,0.5,0,0.9,0,1.4c0,0.1,0,0.1,0,0.2c0,0.1,0,0.2,0,0.3c0.8,32.4,20.9,60.5,45.7,60.5
			c0.2,0,0.4,0,0.5,0c0.2,0,0.3,0,0.5,0c12.3,0,23.5-6.4,31.7-16.9c16.5-4.4,23.3-12.2,26.1-18.1
			C519.2,1835.9,518.2,1829.4,516.4,1825.9z M511.4,1840.4c-2,4.2-6.6,9.5-16.8,13.4c4.3-7.5,7.4-16.4,8.7-26.1
			c3.8-1,7.6-1.3,8.6,0.6C513.1,1830.7,513.7,1835.4,511.4,1840.4z"/>
	</g>
</g>
<g>
	<path fill="#FFFFFF" d="M463.6,1737.1c-3.2,5.2-5.5,10.7-6.4,16.1s-0.3,10.9,2,15.9c0.5,1.2,1.2,2.4,2,3.6c0.4,0.5,0.8,1.2,1.2,1.9
		c0.4,0.7,0.8,1.3,1.2,2c1.6,2.8,2.8,5.7,3.5,8.9c0.7,3.1,0.7,6.4-0.3,9.6c-0.5,1.6-1.2,3.1-2.3,4.4c-1.1,1.3-2.3,2.5-3.7,3.3
		l-0.4-0.4c0.9-1.2,1.6-2.5,2-3.9s0.7-2.7,0.7-4c0.1-2.7-0.4-5.3-1.3-7.9c-0.9-2.5-2.3-5.1-3.7-7.5c-0.4-0.7-0.8-1.2-1.2-1.9
		c-0.4-0.5-0.8-1.2-1.3-1.9c-0.9-1.3-1.7-2.8-2.3-4.4c-0.7-1.5-1.2-3.1-1.5-4.7c-0.4-1.6-0.5-3.2-0.7-4.8c-0.1-3.2,0.4-6.4,1.3-9.3
		c0.9-3.1,2.4-5.9,4.1-8.4c1.7-2.7,3.9-5.1,6.4-7.1L463.6,1737.1z"/>
	<path fill="#FFFFFF" d="M433.9,1754.3c-2.4,3.9-4.1,7.9-4.8,11.9c-0.7,4-0.3,8.1,1.5,11.7c0.4,0.9,0.9,1.9,1.5,2.7
		c0.3,0.4,0.7,0.9,0.9,1.5c0.3,0.5,0.7,1.1,0.9,1.5c1.2,2,2.1,4.3,2.5,6.5c0.5,2.3,0.5,4.8-0.3,7.1c-0.4,1.2-0.9,2.3-1.6,3.2
		c-0.8,0.9-1.6,1.9-2.8,2.4l-0.3-0.3c0.7-0.9,1.2-1.9,1.5-2.8s0.5-2,0.5-2.9c0.1-2-0.3-4-1.1-5.9c-0.7-1.9-1.6-3.7-2.8-5.6
		c-0.3-0.4-0.5-0.9-0.8-1.3c-0.3-0.4-0.7-0.9-0.9-1.5c-0.7-1.1-1.2-2.1-1.7-3.2s-0.8-2.3-1.1-3.5c-0.3-1.2-0.4-2.4-0.5-3.5
		c-0.1-2.4,0.3-4.7,0.9-6.9c0.7-2.3,1.7-4.3,3.1-6.3c1.3-1.9,2.9-3.7,4.8-5.2L433.9,1754.3z"/>
	<path fill="#FFFFFF" d="M491,1754.3c-2.4,3.9-4.1,7.9-4.8,11.9c-0.7,4-0.3,8.1,1.5,11.7c0.4,0.9,0.9,1.9,1.5,2.7
		c0.3,0.4,0.7,0.9,0.9,1.5s0.7,1.1,0.9,1.5c1.2,2,2.1,4.3,2.5,6.5c0.5,2.3,0.5,4.8-0.3,7.1c-0.4,1.2-0.9,2.3-1.6,3.2
		c-0.8,0.9-1.6,1.9-2.8,2.4l-0.3-0.3c0.7-0.9,1.2-1.9,1.5-2.8c0.3-0.9,0.5-2,0.5-2.9c0.1-2-0.3-4-1.1-5.9c-0.7-1.9-1.6-3.7-2.8-5.6
		c-0.3-0.4-0.5-0.9-0.8-1.3c-0.3-0.4-0.7-0.9-0.9-1.5c-0.7-1.1-1.2-2.1-1.7-3.2s-0.8-2.3-1.1-3.5c-0.3-1.2-0.4-2.4-0.5-3.5
		c-0.1-2.4,0.3-4.7,0.9-6.9c0.7-2.3,1.7-4.3,3.1-6.3c1.3-1.9,2.9-3.7,4.8-5.2L491,1754.3z"/>
</g>
</svg>
