<?xml version="1.0" encoding="utf-8"?>
<!-- Generator: Adobe Illustrator 18.0.0, SVG Export Plug-In . SVG Version: 6.00 Build 0)  -->
<!DOCTYPE svg PUBLIC "-//W3C//DTD SVG 1.1//EN" "http://www.w3.org/Graphics/SVG/1.1/DTD/svg11.dtd">
<svg version="1.1" id="Layer_1" xmlns="http://www.w3.org/2000/svg" xmlns:xlink="http://www.w3.org/1999/xlink" x="0px" y="0px"
	 viewBox="340.6 0 283.5 283.5" enable-background="new 340.6 0 283.5 283.5" xml:space="preserve">
<g>
	<g>
		<g>
			<g>
				<path fill="#FFFFFF" d="M486.6,82.3c-3.2,5.2-5.5,10.7-6.4,16.1c-0.9,5.5-0.3,10.9,2,15.9c0.5,1.2,1.2,2.4,2,3.6
					c0.4,0.5,0.8,1.2,1.2,1.9c0.4,0.7,0.8,1.3,1.2,2c1.6,2.8,2.8,5.7,3.5,8.9c0.7,3.1,0.7,6.4-0.3,9.6c-0.5,1.6-1.2,3.1-2.3,4.4
					c-1.1,1.3-2.3,2.5-3.7,3.3l-0.4-0.4c0.9-1.2,1.6-2.5,2-3.9s0.7-2.7,0.7-4c0.1-2.7-0.4-5.3-1.3-7.9c-0.9-2.5-2.3-5.1-3.7-7.5
					c-0.4-0.7-0.8-1.2-1.2-1.9c-0.4-0.5-0.8-1.2-1.3-1.9c-0.9-1.3-1.7-2.8-2.3-4.4c-0.7-1.5-1.2-3.1-1.5-4.7
					c-0.4-1.6-0.5-3.2-0.7-4.8c-0.1-3.2,0.4-6.4,1.3-9.3c0.9-3.1,2.4-5.9,4.1-8.4c1.7-2.7,3.9-5.1,6.4-7.1L486.6,82.3z"/>
				<path fill="#FFFFFF" d="M456.9,99.5c-2.4,3.9-4.1,7.9-4.8,11.9c-0.7,4-0.3,8.1,1.5,11.7c0.4,0.9,0.9,1.9,1.5,2.7
					c0.3,0.4,0.7,0.9,0.9,1.5c0.3,0.5,0.7,1.1,0.9,1.5c1.2,2,2.1,4.3,2.5,6.5c0.5,2.3,0.5,4.8-0.3,7.1c-0.4,1.2-0.9,2.3-1.6,3.2
					c-0.8,0.9-1.6,1.9-2.8,2.4l-0.3-0.3c0.7-0.9,1.2-1.9,1.5-2.8s0.5-2,0.5-2.9c0.1-2-0.3-4-1.1-5.9c-0.7-1.9-1.6-3.7-2.8-5.6
					c-0.3-0.4-0.5-0.9-0.8-1.3c-0.3-0.4-0.7-0.9-0.9-1.5c-0.7-1.1-1.2-2.1-1.7-3.2s-0.8-2.3-1.1-3.5c-0.3-1.2-0.4-2.4-0.5-3.5
					c-0.1-2.4,0.3-4.7,0.9-6.9s1.7-4.3,3.1-6.3c1.3-1.9,2.9-3.7,4.8-5.2L456.9,99.5z"/>
				<path fill="#FFFFFF" d="M514,99.5c-2.4,3.9-4.1,7.9-4.8,11.9c-0.7,4-0.3,8.1,1.5,11.7c0.4,0.9,0.9,1.9,1.5,2.7
					c0.3,0.4,0.7,0.9,0.9,1.5c0.3,0.5,0.7,1.1,0.9,1.5c1.2,2,2.1,4.3,2.5,6.5c0.5,2.3,0.5,4.8-0.3,7.1c-0.4,1.2-0.9,2.3-1.6,3.2
					c-0.8,0.9-1.6,1.9-2.8,2.4l-0.3-0.3c0.7-0.9,1.2-1.9,1.5-2.8c0.3-0.9,0.5-2,0.5-2.9c0.1-2-0.3-4-1.1-5.9
					c-0.7-1.9-1.6-3.7-2.8-5.6c-0.3-0.4-0.5-0.9-0.8-1.3s-0.7-0.9-0.9-1.5c-0.7-1.1-1.2-2.1-1.7-3.2s-0.8-2.3-1.1-3.5
					c-0.3-1.2-0.4-2.4-0.5-3.5c-0.1-2.4,0.3-4.7,0.9-6.9s1.7-4.3,3.1-6.3c1.3-1.9,2.9-3.7,4.8-5.2L514,99.5z"/>
			</g>
			<path fill="#FFFFFF" d="M506.3,201.4h18.5c16.4,0,19.6-16.7,32.2-27.4c12.5-10.8,38.6-12,38.6-12v-2.3h-78.9h-69.2h-78.7v2.3
				c0,0,26.1,1.2,38.6,12c12.5,10.8,15.9,27.4,32.2,27.4h18.5H506.3z"/>
		</g>
	</g>
</g>
</svg>
