<?xml version="1.0" encoding="utf-8"?>
<!-- Generator: Adobe Illustrator 18.0.0, SVG Export Plug-In . SVG Version: 6.00 Build 0)  -->
<!DOCTYPE svg PUBLIC "-//W3C//DTD SVG 1.1//EN" "http://www.w3.org/Graphics/SVG/1.1/DTD/svg11.dtd">
<svg version="1.1" id="Layer_1" xmlns="http://www.w3.org/2000/svg" xmlns:xlink="http://www.w3.org/1999/xlink" x="0px" y="0px"
	 viewBox="0 1322.5 283.5 283.5" enable-background="new 0 1322.5 283.5 283.5" xml:space="preserve">
<g>
	<path fill="#D06519" d="M112.4,1429.8c0.1-0.8-2.2-27.6-2.2-27.6c0.6-0.5,0.9-1.2,0.9-2.1v-2.4c0-1.6-1.3-3.5-2.8-3.5H98.1
		c-1.6,0-2.8,1.9-2.8,3.5v2.4c0,0.8,0.4,1.6,0.9,2.1c0,0.1-2.3,26.9-2.2,27.6c-5.4,3.2-9,9-9,15.7v31.1v23.7v11.4
		c0,5,4.1,7.8,9.1,7.8h18.2c5,0,9.1-2.8,9.1-7.8v-11.4v-23.7v-31.1C121.3,1438.8,117.8,1433,112.4,1429.8z M95.3,1504
		c0,1.1-0.9,2.1-2.1,2.1s-2.1-0.9-2.1-2.1v-53.5c0-1.1,0.9-2.1,2.1-2.1s2.1,0.9,2.1,2.1V1504z"/>
	<path fill="#D06519" d="M198.4,1402.8l-1.4-2.3l-25.3,15.3l-10.7,41.7h-29.8c-2.1,0-3.6,1.7-3.4,3.7l6,69.3c0.2,2,2,3.7,4.1,3.7
		h22.8c2.1,0,3.9-1.7,4.1-3.7l5.9-69.3c0.2-2-1.4-3.7-3.4-3.7h-3.4l10.3-40L198.4,1402.8z M140.7,1522.3c-1.1,0.1-2.1-0.8-2.2-1.9
		l-3.2-43.9c-0.1-1.1,0.8-2.1,1.9-2.2c1.1-0.1,2.1,0.8,2.2,1.9l3.2,43.9C142.7,1521.2,141.9,1522.2,140.7,1522.3z M151.3,1520.3
		c0,1.1-0.9,2.1-2.1,2.1c-1.1,0-2.1-0.9-2.1-2.1v-44c0-1.1,0.9-2.1,2.1-2.1c1.1,0,2.1,0.9,2.1,2.1V1520.3z M160,1520.4
		c-0.1,1.1-1.1,2-2.2,1.9c-1.1-0.1-2-1.1-1.9-2.2l3.2-43.9c0.1-1.1,1.1-2,2.2-1.9c1.1,0.1,2,1.1,1.9,2.2L160,1520.4z"/>
</g>
</svg>
