<?xml version="1.0" encoding="utf-8"?>
<!-- Generator: Adobe Illustrator 18.0.0, SVG Export Plug-In . SVG Version: 6.00 Build 0)  -->
<!DOCTYPE svg PUBLIC "-//W3C//DTD SVG 1.1//EN" "http://www.w3.org/Graphics/SVG/1.1/DTD/svg11.dtd">
<svg version="1.1" id="Layer_1" xmlns="http://www.w3.org/2000/svg" xmlns:xlink="http://www.w3.org/1999/xlink" x="0px" y="0px"
	 viewBox="340.6 979.5 283.5 283.5" enable-background="new 340.6 979.5 283.5 283.5" xml:space="preserve">
<g>
	<g>
		<g>
			<path fill="#FFFFFF" d="M494.6,1125.7c-1.6,0.5-2.6,1.2-2.8,1.9c-0.1,0.3-0.1,0.6,0.1,1c7.5,0,25-0.9,30.6-8.3
				c-2-1.4-3.6-2.2-5.2-2.8c-1.4-0.5-2.9-1.1-4.3-1.9c-0.9-0.5-1.7-1-2.8-1.7c-0.2-0.1-0.4-0.3-0.7-0.4c-0.1-0.1-0.2-0.1-0.3-0.2
				c0.2,1.2,0.1,2.4-0.3,3.6c-1.8,4.6-8.9,7-13.5,8.6L494.6,1125.7z"/>
			<path fill="#FFFFFF" d="M530.8,1124.7c-0.5-1.1-1.8-2.5-5-3.2c0,0.1-0.1,0.2-0.2,0.2c-6,8.8-23.9,10.1-34,10.1c-1,0-1.9,0-2.7,0
				c-2,1.5-1.7,4.1-1.3,5.5c2,0.4,5.2,0.9,9,0.9C505.5,1138.1,518.6,1135.8,530.8,1124.7z"/>
			<path fill="#FFFFFF" d="M532.4,1127.7c-12.8,11.3-26.4,13.7-35.7,13.7c-2.6,0-5.1-0.2-7.6-0.6c-1.3-0.2-2.2-0.4-2.7-0.5
				c-1,1.3-4.2,6.3-1.4,9.5h18.3c15-2.6,26.4-11.5,32-16.7C535.3,1130.6,533.6,1128.8,532.4,1127.7z"/>
			<path fill="#FFFFFF" d="M542.3,1147.5c0.8-3.6-3-9.8-4.6-11.9c-3.5,5.7-13.6,11-20.9,14.2h23.4
				C541.4,1149.4,542,1148.7,542.3,1147.5z"/>
		</g>
		<path fill="#FFFFFF" d="M532.6,1190.1c-0.6,1.6-2.6,2.9-4.4,2.9H498c-1.8,0-3.8-1.3-4.4-2.9l-13.4-35.1c-0.6-1.6,0.4-2.9,2.2-2.9
			h61.3c1.8,0,2.8,1.3,2.2,2.9L532.6,1190.1z"/>
	</g>
	<g>
		<path fill="#FFFFFF" d="M519.9,1072.6c-0.8-1.2-1.9-1.8-2.4-1.5c-0.1,0-0.1,0.1-0.1,0.1l0,0l-36.3,25c0,0,0,0,0,0
			c-1-2.9-2.5-5.5-4.4-7.5v0l16.7-36.6l0,0h0c0,0,0.1-0.1,0.1-0.1c0.3-0.6-0.6-1.5-1.9-2.1c-1.3-0.6-2.6-0.6-2.8,0
			c0,0.1,0,0.1,0,0.2l0,0l-16.3,35.7c0,0,0,0,0,0c-1.7-0.8-3.6-1.2-5.7-1.2c0,0-0.1,0-0.1,0c-2.8-3.1-6.9-5.1-11.4-5.1
			c-4.9,0-9.3,2.3-12.1,6c-1.6-0.6-3.3-0.9-5-0.9c-8.5,0-15.4,6.9-15.4,15.4c0,0,0,1.7-0.3,4.1h59.9c0.1-0.8,0.1-1.5,0-2.4
			c0,0,0,0,0,0.1l38-26.1l0,0h0c0.1,0,0.1,0,0.2-0.1C521,1075.1,520.7,1073.8,519.9,1072.6z M489.1,1051c0,0,0.1,0.1,0.1,0.1
			C489.2,1051.1,489.2,1051.1,489.1,1051z M492.2,1052.5C492.2,1052.5,492.2,1052.5,492.2,1052.5
			C492.2,1052.5,492.2,1052.5,492.2,1052.5z M492.9,1052.4C492.9,1052.4,492.9,1052.4,492.9,1052.4
			C492.9,1052.4,492.9,1052.4,492.9,1052.4z M492.6,1052.5C492.6,1052.5,492.6,1052.5,492.6,1052.5
			C492.6,1052.5,492.6,1052.5,492.6,1052.5z M491.9,1052.4C491.9,1052.4,491.8,1052.4,491.9,1052.4
			C491.8,1052.4,491.9,1052.4,491.9,1052.4z M491.5,1052.4C491.4,1052.4,491.4,1052.4,491.5,1052.4
			C491.4,1052.4,491.4,1052.4,491.5,1052.4z M490.1,1051.8c-0.1-0.1-0.2-0.1-0.3-0.2C489.8,1051.6,489.9,1051.7,490.1,1051.8z
			 M490.6,1052c-0.2-0.1-0.3-0.2-0.5-0.2C490.3,1051.9,490.4,1052,490.6,1052z M489.4,1051.3c0.1,0.1,0.1,0.1,0.2,0.2
			C489.5,1051.4,489.5,1051.4,489.4,1051.3z M489,1050.9C488.9,1050.8,488.9,1050.8,489,1050.9
			C488.9,1050.8,488.9,1050.8,489,1050.9z M488.8,1050.6C488.8,1050.6,488.8,1050.6,488.8,1050.6
			C488.8,1050.6,488.8,1050.6,488.8,1050.6z M473.6,1086.4c-0.1,0-0.2-0.1-0.3-0.1C473.4,1086.3,473.5,1086.3,473.6,1086.4z
			 M475.7,1087.9C475.7,1087.9,475.7,1087.9,475.7,1087.9C475.7,1087.9,475.7,1087.9,475.7,1087.9z M474.7,1087.1
			c0,0-0.1-0.1-0.1-0.1C474.6,1087,474.6,1087,474.7,1087.1z M482.1,1099.9c0.1,0.3,0.1,0.6,0.2,0.9
			C482.2,1100.6,482.1,1100.2,482.1,1099.9z M481.6,1097.9c0,0.1,0,0.2,0.1,0.2C481.6,1098,481.6,1098,481.6,1097.9z M519.8,1075.5
			C519.8,1075.5,519.8,1075.5,519.8,1075.5C519.8,1075.5,519.8,1075.5,519.8,1075.5z M519.6,1075.4
			C519.5,1075.4,519.5,1075.4,519.6,1075.4C519.5,1075.4,519.5,1075.4,519.6,1075.4z M517.6,1073.2
			C517.6,1073.2,517.6,1073.1,517.6,1073.2C517.6,1073.1,517.6,1073.2,517.6,1073.2z M517.2,1071.7
			C517.2,1071.8,517.2,1071.8,517.2,1071.7C517.2,1071.8,517.2,1071.8,517.2,1071.7z M517.3,1072.4
			C517.3,1072.4,517.3,1072.4,517.3,1072.4C517.3,1072.4,517.3,1072.4,517.3,1072.4z M518.4,1074.5c0.1,0.1,0.1,0.1,0.2,0.2
			C518.6,1074.6,518.5,1074.6,518.4,1074.5z M518,1074c0.1,0.1,0.2,0.3,0.3,0.4C518.2,1074.2,518.1,1074.1,518,1074z M519.3,1075.2
			c0,0-0.1-0.1-0.1-0.1C519.2,1075.2,519.2,1075.2,519.3,1075.2z M518.9,1075c-0.1,0-0.1-0.1-0.2-0.1
			C518.8,1074.9,518.9,1074.9,518.9,1075z M520,1075.5C520,1075.5,520.1,1075.5,520,1075.5C520.1,1075.5,520,1075.5,520,1075.5z"/>
		<path fill="#FFFFFF" d="M455.9,1141.4c17.5-2,31.8-16.7,29.1-34.6h-66.2c-2.5,17.7,11.4,32.6,29.1,34.6h1.7v16.2
			c-7.2,0.2-12.8,1.6-12.8,3.2c0,1.8,6.8,3.2,15.1,3.2s15.1-1.4,15.1-3.2c0-1.6-5.8-3-13.2-3.2v-16.2H455.9z"/>
	</g>
</g>
</svg>
