<?xml version="1.0" encoding="utf-8"?>
<!-- Generator: Adobe Illustrator 18.0.0, SVG Export Plug-In . SVG Version: 6.00 Build 0)  -->
<!DOCTYPE svg PUBLIC "-//W3C//DTD SVG 1.1//EN" "http://www.w3.org/Graphics/SVG/1.1/DTD/svg11.dtd">
<svg version="1.1" id="Layer_1" xmlns="http://www.w3.org/2000/svg" xmlns:xlink="http://www.w3.org/1999/xlink" x="0px" y="0px"
	 viewBox="340.6 331.5 283.5 283.5" enable-background="new 340.6 331.5 283.5 283.5" xml:space="preserve">
<g>
	<g>
		<g>
			<path fill="#FFFFFF" d="M506.3,532.9h18.5c16.4,0,19.6-16.7,32.2-27.4c12.5-10.8,38.6-12,38.6-12v-2.3h-78.9h-69.2h-78.7v2.3
				c0,0,26.1,1.2,38.6,12c12.5,10.8,15.9,27.4,32.2,27.4h18.5H506.3z"/>
		</g>
	</g>
</g>
<g>
	<g>
		<g>
			<path fill="#FFFFFF" d="M528.4,445.6c0.4-0.4,0.8-0.8,1.3-1.1c-0.6-3.7-2.7-6.9-5.6-9c-3.4,2.5-5.6,6.5-5.5,11
				c0,4.5,2.3,8.5,5.8,10.8c0.2-0.1,0.3-0.2,0.4-0.3C524.1,452.9,525.3,448.7,528.4,445.6z"/>
			<path fill="#FFFFFF" d="M529.8,446.2c-3.2,3.2-4.3,7.6-3.6,11.7c4.1,0.7,8.5-0.6,11.7-3.8c3.2-3.2,4.3-7.6,3.6-11.7
				C537.4,441.7,533,443,529.8,446.2z"/>
		</g>
		<path fill="#FFFFFF" d="M539.6,480.5c-4.4,5.7-11.5,7.6-15.7,4.3c-4.3-3.3-4.2-10.6,0.3-16.3c4.4-5.7,11.4-7.6,15.7-4.3
			C544.1,467.5,544,474.8,539.6,480.5z"/>
		<path fill="#FFFFFF" d="M418.3,455.4c-0.5,13.1,9.2,25.9,23.2,29.8c14.1,4,27.8-2.2,32.7-14.1L418.3,455.4z M443.8,474.6
			c-7.9-2.2-14.1-6.1-13.8-13.4l5.4,1.5c-0.4,0.1-0.8,0.3-1.1,0.4c-1.2,0.6-2.5,2.3-1.6,3.8c1,1.5,2.8,0.6,3.6-0.6
			c0.4-0.6,1.3-2,1.4-3l6.5,1.8c-0.6,0.8-1.2,1.9-1.5,2.5c-0.8,1.8-0.9,5,1.3,5.7c2.2,0.6,3.5-2.3,3.5-4.3c0-0.7-0.1-1.9-0.3-3
			l6.5,1.8c-0.4,0.9-0.1,2.6,0,3.4c0.3,1.4,1.5,3.3,3,2.4c1.5-0.8,1-3.1,0.2-4.2c-0.2-0.2-0.5-0.6-0.8-0.9l5.3,1.5
			C458.8,476.7,451.8,476.8,443.8,474.6z"/>
		<g>
			<path fill="#FFFFFF" d="M488.3,429c-4,3.2-7.1,6.6-9.1,10c-1.3,2.2-2.2,4.4-2.7,6.6c-0.3-1-0.9-2-1.6-2.8l0.8-2.4
				c0.1-0.3,0.1-0.8-0.1-1.1c0,0-2.5-5.5,0.3-7c2.8-1.5,0.3-3.4,0.9-4.8c0.6-1.3,10.2-6.2,12.1-5.8c1.7,0.3,4.1,1.5,5.3,3.1
				C492.4,425.9,490.3,427.3,488.3,429z"/>
			<path fill="#FFFFFF" d="M490.5,430.5c1.9-1.6,3.9-2.9,5.7-4.1c0,0,0,0,0,0c0.8,1.7,1.7,4.4,1.7,4.4c0.3,0.2,0.8,0.5,1.2,0.6
				c0,0,3.7,1.3,0.8,3c-2.9,1.7-4.9,9.1-10.6,5.6c-1.5-0.9-9.3,6.2-9.6,7.6c-0.1,0.2-0.1,0.4-0.2,0.6l-0.7,0.3
				C479.3,442.4,483.2,436.4,490.5,430.5z"/>
		</g>
		<g>
			<path fill="#FFFFFF" d="M474.4,455.1l-3.8-4.1c-0.3-0.6-0.5-1.5-0.4-2.2c0,0,1.3-11.9-3.7-13.3c-5-1.4-2-6.4-3.5-8.6
				c-1.5-2.2-18.3-6.5-21-4.7c-2.3,1.5-5.5,5-6.6,8.8c3.4,1.3,7.2,2.9,11,5c7.5,4,13.7,8.8,18.3,14.2c2.5,2.9,5.6,6.6,7.6,10.1
				C472.7,458.4,473.4,456.6,474.4,455.1z"/>
			<g>
				<path fill="#FFFFFF" d="M471.7,465.7c0-0.2,0.1-2,0.2-2.6c-5.5-7.5-13.8-17.3-26.5-24.1c-3.6-1.9-7.2-3.5-10.5-4.8
					c0,0,0,0,0,0.1c-0.4,3.7-0.5,9.4-0.5,9.4c-0.3,0.6-1,1.3-1.5,1.8c0,0-5.1,4.4,0.1,6.1c5.2,1.7,11.5,14.8,18.6,5.1
					C453.3,454.5,470,462.8,471.7,465.7z"/>
			</g>
		</g>
		<path fill="#FFFFFF" d="M498.7,442.5c-12.1,0-22,9.8-22,22s9.8,22,22,22c12.1,0,22-9.8,22-22S510.8,442.5,498.7,442.5z
			 M505.7,454.1c0.9-1.5,3.1-2.9,4.6-1.4c1.5,1.5,0.1,3.8-1.4,4.7c-0.9,0.6-3.5,1.8-4.3,1C503.9,457.6,505.1,455.1,505.7,454.1z
			 M498.7,447.9c2.2,0,2.7,2.6,2.3,4.3c-0.3,1.1-1.1,3.8-2.3,3.8c-1.2,0-2.1-2.7-2.3-3.8C496,450.5,496.5,447.9,498.7,447.9z
			 M487,452.8c1.5-1.5,3.8-0.1,4.7,1.4c0.6,0.9,1.8,3.5,1,4.3c-0.8,0.8-3.4-0.5-4.3-1C486.9,456.5,485.5,454.3,487,452.8z
			 M482.2,464.4c0-2.2,2.6-2.7,4.3-2.3c1.1,0.3,3.8,1.1,3.8,2.3c0,1.2-2.7,2.1-3.8,2.3C484.8,467.2,482.2,466.6,482.2,464.4z
			 M491.7,474.7c-0.9,1.5-3.1,2.9-4.7,1.4c-1.5-1.5-0.1-3.8,1.4-4.7c0.9-0.6,3.5-1.9,4.3-1C493.5,471.3,492.2,473.8,491.7,474.7z
			 M498.7,481c-2.2,0-2.7-2.6-2.3-4.3c0.3-1.1,1.1-3.8,2.3-3.8c1.2,0,2.1,2.7,2.3,3.8C501.4,478.4,500.9,481,498.7,481z
			 M498.7,471.8c-4,0-7.3-3.3-7.3-7.3c0-4,3.3-7.3,7.3-7.3c4,0,7.3,3.3,7.3,7.3C506,468.5,502.7,471.8,498.7,471.8z M510.4,476.1
			c-1.5,1.5-3.8,0.1-4.6-1.4c-0.6-0.9-1.8-3.5-1-4.3c0.8-0.8,3.4,0.5,4.3,1C510.4,472.4,511.9,474.6,510.4,476.1z M510.9,466.8
			c-1.1-0.3-3.8-1.1-3.8-2.3c0-1.2,2.7-2.1,3.8-2.3c1.7-0.4,4.3,0.1,4.3,2.3C515.2,466.6,512.6,467.2,510.9,466.8z"/>
	</g>
</g>
</svg>
