<?xml version="1.0" encoding="utf-8"?>
<!-- Generator: Adobe Illustrator 18.0.0, SVG Export Plug-In . SVG Version: 6.00 Build 0)  -->
<!DOCTYPE svg PUBLIC "-//W3C//DTD SVG 1.1//EN" "http://www.w3.org/Graphics/SVG/1.1/DTD/svg11.dtd">
<svg version="1.1" id="Layer_1" xmlns="http://www.w3.org/2000/svg" xmlns:xlink="http://www.w3.org/1999/xlink" x="0px" y="0px"
	 viewBox="0 1665.5 283.5 283.5" enable-background="new 0 1665.5 283.5 283.5" xml:space="preserve">
<g>
	<g>
		<path fill="#D06519" d="M191.2,1772.2c-9.5,1.4-16.9,11.4-16.9,23.5c0,12.1,7.4,22.1,16.9,23.5V1772.2z"/>
		<path fill="#D06519" d="M195.6,1772.2v47c9.5-1.4,16.9-11.4,16.9-23.5C212.6,1783.6,205.2,1773.6,195.6,1772.2z"/>
	</g>
	<g>
		<path fill="#D06519" d="M175.8,1825.9c-2.3-4.5-7.7-6.8-12.6-5.8c0.1-1,0.1-2,0.1-3.1c0-0.1,0-0.2,0-0.3c0-0.1,0-0.1,0-0.2
			c0-0.5,0-0.9,0-1.4c0,0.3-0.1,0.5-0.2,0.8c-0.2-0.3-0.4-0.5-0.7-0.8h-1.1H72.9h-1.1c-0.3,0.3-0.6,0.5-0.7,0.8
			c-0.2-0.3-0.2-0.5-0.2-0.8c0,0.5,0,0.9,0,1.4c0,0.1,0,0.1,0,0.2c0,0.1,0,0.2,0,0.3c0.8,32.4,20.9,60.5,45.7,60.5
			c0.2,0,0.4,0,0.5,0c0.2,0,0.3,0,0.5,0c12.3,0,23.5-6.4,31.7-16.9c16.5-4.4,23.3-12.2,26.1-18.1
			C178.6,1835.9,177.6,1829.4,175.8,1825.9z M170.8,1840.4c-2,4.2-6.6,9.5-16.8,13.4c4.3-7.5,7.4-16.4,8.7-26.1
			c3.8-1,7.6-1.3,8.6,0.6C172.5,1830.7,173.2,1835.4,170.8,1840.4z"/>
	</g>
</g>
<g>
	<path fill="#D06519" d="M123,1737.1c-3.2,5.2-5.5,10.7-6.4,16.1c-0.9,5.5-0.3,10.9,2,15.9c0.5,1.2,1.2,2.4,2,3.6
		c0.4,0.5,0.8,1.2,1.2,1.9c0.4,0.7,0.8,1.3,1.2,2c1.6,2.8,2.8,5.7,3.5,8.9c0.7,3.1,0.7,6.4-0.3,9.6c-0.5,1.6-1.2,3.1-2.3,4.4
		c-1.1,1.3-2.3,2.5-3.7,3.3l-0.4-0.4c0.9-1.2,1.6-2.5,2-3.9s0.7-2.7,0.7-4c0.1-2.7-0.4-5.3-1.3-7.9c-0.9-2.5-2.3-5.1-3.7-7.5
		c-0.4-0.7-0.8-1.2-1.2-1.9c-0.4-0.5-0.8-1.2-1.3-1.9c-0.9-1.3-1.7-2.8-2.3-4.4c-0.7-1.5-1.2-3.1-1.5-4.7c-0.4-1.6-0.5-3.2-0.7-4.8
		c-0.1-3.2,0.4-6.4,1.3-9.3c0.9-3.1,2.4-5.9,4.1-8.4c1.7-2.7,3.9-5.1,6.4-7.1L123,1737.1z"/>
	<path fill="#D06519" d="M93.3,1754.3c-2.4,3.9-4.1,7.9-4.8,11.9c-0.7,4-0.3,8.1,1.5,11.7c0.4,0.9,0.9,1.9,1.5,2.7
		c0.3,0.4,0.7,0.9,0.9,1.5c0.3,0.5,0.7,1.1,0.9,1.5c1.2,2,2.1,4.3,2.5,6.5c0.5,2.3,0.5,4.8-0.3,7.1c-0.4,1.2-0.9,2.3-1.6,3.2
		c-0.8,0.9-1.6,1.9-2.8,2.4l-0.3-0.3c0.7-0.9,1.2-1.9,1.5-2.8s0.5-2,0.5-2.9c0.1-2-0.3-4-1.1-5.9c-0.7-1.9-1.6-3.7-2.8-5.6
		c-0.3-0.4-0.5-0.9-0.8-1.3c-0.3-0.4-0.7-0.9-0.9-1.5c-0.7-1.1-1.2-2.1-1.7-3.2c-0.5-1.1-0.8-2.3-1.1-3.5c-0.3-1.2-0.4-2.4-0.5-3.5
		c-0.1-2.4,0.3-4.7,0.9-6.9c0.7-2.3,1.7-4.3,3.1-6.3c1.3-1.9,2.9-3.7,4.8-5.2L93.3,1754.3z"/>
	<path fill="#D06519" d="M150.4,1754.3c-2.4,3.9-4.1,7.9-4.8,11.9c-0.7,4-0.3,8.1,1.5,11.7c0.4,0.9,0.9,1.9,1.5,2.7
		c0.3,0.4,0.7,0.9,0.9,1.5c0.3,0.5,0.7,1.1,0.9,1.5c1.2,2,2.1,4.3,2.5,6.5c0.5,2.3,0.5,4.8-0.3,7.1c-0.4,1.2-0.9,2.3-1.6,3.2
		c-0.8,0.9-1.6,1.9-2.8,2.4l-0.3-0.3c0.7-0.9,1.2-1.9,1.5-2.8s0.5-2,0.5-2.9c0.1-2-0.3-4-1.1-5.9c-0.7-1.9-1.6-3.7-2.8-5.6
		c-0.3-0.4-0.5-0.9-0.8-1.3c-0.3-0.4-0.7-0.9-0.9-1.5c-0.7-1.1-1.2-2.1-1.7-3.2c-0.5-1.1-0.8-2.3-1.1-3.5c-0.3-1.2-0.4-2.4-0.5-3.5
		c-0.1-2.4,0.3-4.7,0.9-6.9c0.7-2.3,1.7-4.3,3.1-6.3c1.3-1.9,2.9-3.7,4.8-5.2L150.4,1754.3z"/>
</g>
</svg>
