<?xml version="1.0" encoding="utf-8"?>
<!-- Generator: Adobe Illustrator 18.0.0, SVG Export Plug-In . SVG Version: 6.00 Build 0)  -->
<!DOCTYPE svg PUBLIC "-//W3C//DTD SVG 1.1//EN" "http://www.w3.org/Graphics/SVG/1.1/DTD/svg11.dtd">
<svg version="1.1" id="Layer_1" xmlns="http://www.w3.org/2000/svg" xmlns:xlink="http://www.w3.org/1999/xlink" x="0px" y="0px"
	 viewBox="0 650.5 283.5 283.5" enable-background="new 0 650.5 283.5 283.5" xml:space="preserve">
<g>
	<g>
		<g>
			<path fill="#D06519" d="M165.7,851.9h18.5c16.4,0,19.6-16.7,32.2-27.4c12.5-10.8,38.6-12,38.6-12v-2.3h-78.9h-69.2H28.3v2.3
				c0,0,26.1,1.2,38.6,12s15.9,27.4,32.2,27.4h18.5H165.7z"/>
		</g>
	</g>
</g>
<g>
	<g>
		<path fill="#D06519" d="M70.3,803.9c5.6-5.7,15.3-10.7,27.6-14.3c12.3-3.5,27.1-5.6,43.1-5.6c0,0,0,0,0,0
			c21.3,0,40.6,3.7,54.4,9.6c6.9,3,12.5,6.5,16.2,10.3c0.5,0.5,1,1,1.4,1.6h3.3c-0.8-1.2-1.8-2.3-2.9-3.4
			c-6.1-6.2-16.2-11.3-28.7-14.9c-12.5-3.6-27.6-5.7-43.8-5.7c-21.6,0-41.2,3.7-55.4,9.8c-7.1,3-13,6.7-17.1,10.8
			c-1.1,1.1-2,2.2-2.9,3.4h3.3C69.3,805,69.8,804.5,70.3,803.9z"/>
		<path fill="#D06519" d="M100.8,793.9c11.3-3.1,25-4.9,39.8-4.9c0,0,0,0,0,0c19.7,0,37.5,3.2,50.3,8.4c5.7,2.3,10.4,5.1,13.8,8.1
			h3.7c-0.2-0.3-0.5-0.5-0.7-0.8c-5.7-5.6-15-10.1-26.6-13.3c-11.6-3.2-25.5-5-40.4-5c-19.9,0-38,3.2-51.2,8.6
			c-6.6,2.7-12,5.9-15.8,9.7c-0.3,0.3-0.5,0.5-0.7,0.8h3.7C81.8,800.8,90.3,796.8,100.8,793.9z"/>
		<path fill="#D06519" d="M103.7,798.1c10.4-2.7,22.9-4.2,36.5-4.2c0,0,0,0,0,0c18.1,0,34.4,2.7,46.1,7.2c3.3,1.3,6.3,2.7,8.8,4.3
			h4.5c-5.3-4.1-13-7.4-22.3-9.9c-10.6-2.7-23.4-4.3-37.1-4.3c-18.3,0-34.8,2.7-47,7.4c-4.9,1.9-9.1,4.1-12.4,6.7h4.5
			C90,802.6,96.3,800,103.7,798.1z"/>
		<path fill="#D06519" d="M106.6,802.4c9.4-2.2,20.9-3.5,33.2-3.5c0,0,0,0,0,0c16.4,0,31.3,2.2,41.9,6c0.5,0.2,1,0.4,1.5,0.6h6.1
			c-4.3-2.3-9.7-4.2-15.8-5.6c-9.7-2.3-21.3-3.5-33.7-3.5c-16.6,0-31.7,2.2-42.7,6.2c-2.5,0.9-4.7,1.9-6.8,3h6.2
			C99.5,804.3,102.9,803.3,106.6,802.4z"/>
		<path fill="#D06519" d="M139.4,803.9C139.4,803.9,139.5,803.9,139.4,803.9c8.6,0,16.7,0.6,23.9,1.6h12.2c-1.8-0.5-3.7-1-5.7-1.4
			c-8.7-1.9-19.2-2.8-30.4-2.8c-13.8,0-26.4,1.4-36.1,4.2h12.2C122.8,804.4,130.9,803.9,139.4,803.9z"/>
	</g>
	<g>
		<g>
			<path fill="#D06519" d="M253.1,721.7c-12.6,0.1-55.5,2.5-76.9,3.5c-20.1,1-27.6,0.7-34.6,1.1c-0.1-1.2-0.4-2.3-0.7-3.2
				c-1-3-3.7-5.6-7.2-6.8c-3.1-1.1-7.1-1.5-11.9-1.5v4.2c2,0.3,3.5,1.3,3.5,2.4c0,1.1-1.5,2.1-3.5,2.4v2.5c2,0.3,3.5,1.3,3.5,2.4
				c0,1.1-1.5,2.1-3.5,2.4v2.5c2,0.3,3.5,1.3,3.5,2.4c0,1.1-1.5,2.1-3.5,2.4v4.2c4.6,0,8.4-0.3,11.5-1.3c4.2-1.4,6.5-3.9,7.7-7.1
				c0.3-1,0.5-2,0.7-3.2c7.1,0.4,14.9,0.1,35,1.1c22.5,1.1,66.2,3.5,76.5,3.4C257.1,735.6,257.1,721.7,253.1,721.7z"/>
			<g>
				<path fill="#D06519" d="M87.7,725c0.1,0.7,3,0.7,7,0.7v-1.4C90.7,724.3,87.6,724.4,87.7,725z"/>
				<path fill="#D06519" d="M87.7,732.3c0,0.6,3,0.7,7,0.7v-1.3C92,731.7,87.7,731.8,87.7,732.3z"/>
				<path fill="#D06519" d="M87.5,738.6c0,0.3,3,0.9,7.2,1.6v-1.9C90.5,738.2,87.5,738.3,87.5,738.6z"/>
				<path fill="#D06519" d="M87.6,718.6c0,0.4,3,0.5,7.1,0.6v-2.2C90.5,717.5,87.6,718.2,87.6,718.6z"/>
			</g>
		</g>
		<g>
			<path fill="#D06519" d="M98,713.3c-0.7,0-1.3,0.6-1.3,1.3v30v42.9c0,0.7,0.6,1.3,1.3,1.3c0.7,0,1.3-0.6,1.3-1.3v-42.9v-30
				C99.3,713.8,98.7,713.3,98,713.3z"/>
			<path fill="#D06519" d="M113.4,711.8c-0.7,0-1.3,0.6-1.3,1.3v31.5v39.6c0,0.7,0.6,1.3,1.3,1.3c0.7,0,1.3-0.6,1.3-1.3v-39.6v-31.5
				C114.7,712.4,114.1,711.8,113.4,711.8z"/>
			<path fill="#D06519" d="M103.1,712.5c-0.7,0-1.3,0.6-1.3,1.3v30.7v41.8c0,0.7,0.6,1.3,1.3,1.3c0.7,0,1.3-0.6,1.3-1.3v-41.8v-30.7
				C104.4,713.1,103.8,712.5,103.1,712.5z"/>
			<path fill="#D06519" d="M108.3,712.2c-0.7,0-1.3,0.6-1.3,1.3v31.1v40.3c0,0.7,0.6,1.3,1.3,1.3c0.7,0,1.3-0.6,1.3-1.3v-40.3v-31.1
				C109.5,712.7,109,712.2,108.3,712.2z"/>
			<path fill="#D06519" d="M118.5,711.8c-0.7,0-1.3,0.6-1.3,1.3v31.5v38.9c0,0.7,0.6,1.3,1.3,1.3c0.7,0,1.3-0.6,1.3-1.3v-38.9v-31.5
				C119.8,712.4,119.2,711.8,118.5,711.8z"/>
		</g>
	</g>
</g>
</svg>
