<?xml version="1.0" encoding="utf-8"?>
<!-- Generator: Adobe Illustrator 18.0.0, SVG Export Plug-In . SVG Version: 6.00 Build 0)  -->
<!DOCTYPE svg PUBLIC "-//W3C//DTD SVG 1.1//EN" "http://www.w3.org/Graphics/SVG/1.1/DTD/svg11.dtd">
<svg version="1.1" id="Layer_1" xmlns="http://www.w3.org/2000/svg" xmlns:xlink="http://www.w3.org/1999/xlink" x="0px" y="0px"
	 viewBox="0 979.5 283.5 283.5" enable-background="new 0 979.5 283.5 283.5" xml:space="preserve">
<g>
	<g>
		<g>
			<path fill="#D06519" d="M154,1125.7c-1.6,0.5-2.6,1.2-2.8,1.9c-0.1,0.3-0.1,0.6,0.1,1c7.5,0,25-0.9,30.6-8.3
				c-2-1.4-3.6-2.2-5.2-2.8c-1.4-0.5-2.9-1.1-4.3-1.9c-0.9-0.5-1.7-1-2.8-1.7c-0.2-0.1-0.4-0.3-0.7-0.4c-0.1-0.1-0.2-0.1-0.3-0.2
				c0.2,1.2,0.1,2.4-0.3,3.6c-1.8,4.6-8.9,7-13.5,8.6L154,1125.7z"/>
			<path fill="#D06519" d="M190.2,1124.7c-0.5-1.1-1.8-2.5-5-3.2c0,0.1-0.1,0.2-0.2,0.2c-6,8.8-23.9,10.1-34,10.1c-1,0-1.9,0-2.7,0
				c-2,1.5-1.7,4.1-1.3,5.5c2,0.4,5.2,0.9,9,0.9C165,1138.1,178,1135.8,190.2,1124.7z"/>
			<path fill="#D06519" d="M191.8,1127.7c-12.8,11.3-26.4,13.7-35.7,13.7c-2.6,0-5.1-0.2-7.6-0.6c-1.3-0.2-2.2-0.4-2.7-0.5
				c-1,1.3-4.2,6.3-1.4,9.5h18.3c15-2.6,26.4-11.5,32-16.7C194.8,1130.6,193,1128.8,191.8,1127.7z"/>
			<path fill="#D06519" d="M201.7,1147.5c0.8-3.6-3-9.8-4.6-11.9c-3.5,5.7-13.6,11-20.9,14.2h23.4
				C200.8,1149.4,201.5,1148.7,201.7,1147.5z"/>
		</g>
		<path fill="#D06519" d="M192,1190.1c-0.6,1.6-2.6,2.9-4.4,2.9h-30.1c-1.8,0-3.8-1.3-4.4-2.9l-13.4-35.1c-0.6-1.6,0.4-2.9,2.2-2.9
			h61.3c1.8,0,2.8,1.3,2.2,2.9L192,1190.1z"/>
	</g>
	<g>
		<path fill="#D06519" d="M179.3,1072.6c-0.8-1.2-1.9-1.8-2.4-1.5c-0.1,0-0.1,0.1-0.1,0.1l0,0l-36.3,25c0,0,0,0,0,0
			c-1-2.9-2.5-5.5-4.4-7.5v0l16.7-36.6l0,0h0c0,0,0.1-0.1,0.1-0.1c0.3-0.6-0.6-1.5-1.9-2.1c-1.3-0.6-2.6-0.6-2.8,0
			c0,0.1,0,0.1,0,0.2l0,0l-16.3,35.7c0,0,0,0,0,0c-1.7-0.8-3.6-1.2-5.7-1.2c0,0-0.1,0-0.1,0c-2.8-3.1-6.9-5.1-11.4-5.1
			c-4.9,0-9.3,2.3-12.1,6c-1.6-0.6-3.3-0.9-5-0.9c-8.5,0-15.4,6.9-15.4,15.4c0,0,0,1.7-0.3,4.1h59.9c0.1-0.8,0.1-1.5,0-2.4
			c0,0,0,0,0,0.1l38-26.1l0,0h0c0.1,0,0.1,0,0.2-0.1C180.4,1075.1,180.2,1073.8,179.3,1072.6z M148.5,1051c0,0,0.1,0.1,0.1,0.1
			C148.6,1051.1,148.6,1051.1,148.5,1051z M151.6,1052.5C151.7,1052.5,151.7,1052.5,151.6,1052.5
			C151.7,1052.5,151.7,1052.5,151.6,1052.5z M152.3,1052.4C152.3,1052.4,152.3,1052.4,152.3,1052.4
			C152.3,1052.4,152.3,1052.4,152.3,1052.4z M152,1052.5C152,1052.5,152,1052.5,152,1052.5C152,1052.5,152,1052.5,152,1052.5z
			 M151.3,1052.4C151.3,1052.4,151.3,1052.4,151.3,1052.4C151.3,1052.4,151.3,1052.4,151.3,1052.4z M150.9,1052.4
			C150.9,1052.4,150.9,1052.4,150.9,1052.4C150.9,1052.4,150.9,1052.4,150.9,1052.4z M149.5,1051.8c-0.1-0.1-0.2-0.1-0.3-0.2
			C149.3,1051.6,149.4,1051.7,149.5,1051.8z M150,1052c-0.2-0.1-0.3-0.2-0.5-0.2C149.7,1051.9,149.8,1052,150,1052z M148.8,1051.3
			c0.1,0.1,0.1,0.1,0.2,0.2C149,1051.4,148.9,1051.4,148.8,1051.3z M148.4,1050.9C148.4,1050.8,148.4,1050.8,148.4,1050.9
			C148.4,1050.8,148.4,1050.8,148.4,1050.9z M148.2,1050.6C148.2,1050.6,148.2,1050.6,148.2,1050.6
			C148.2,1050.6,148.2,1050.6,148.2,1050.6z M133,1086.4c-0.1,0-0.2-0.1-0.3-0.1C132.8,1086.3,132.9,1086.3,133,1086.4z
			 M135.1,1087.9C135.1,1087.9,135.1,1087.9,135.1,1087.9C135.1,1087.9,135.1,1087.9,135.1,1087.9z M134.1,1087.1
			c0,0-0.1-0.1-0.1-0.1C134,1087,134.1,1087,134.1,1087.1z M141.5,1099.9c0.1,0.3,0.1,0.6,0.2,0.9
			C141.6,1100.6,141.6,1100.2,141.5,1099.9z M141,1097.9c0,0.1,0,0.2,0.1,0.2C141.1,1098,141.1,1098,141,1097.9z M179.3,1075.5
			C179.2,1075.5,179.2,1075.5,179.3,1075.5C179.2,1075.5,179.2,1075.5,179.3,1075.5z M179,1075.4
			C178.9,1075.4,178.9,1075.4,179,1075.4C178.9,1075.4,178.9,1075.4,179,1075.4z M177,1073.2C177,1073.2,177,1073.1,177,1073.2
			C177,1073.1,177,1073.2,177,1073.2z M176.7,1071.7C176.7,1071.8,176.7,1071.8,176.7,1071.7
			C176.7,1071.8,176.7,1071.8,176.7,1071.7z M176.7,1072.4C176.7,1072.4,176.7,1072.4,176.7,1072.4
			C176.7,1072.4,176.7,1072.4,176.7,1072.4z M177.9,1074.5c0.1,0.1,0.1,0.1,0.2,0.2C178,1074.6,177.9,1074.6,177.9,1074.5z
			 M177.4,1074c0.1,0.1,0.2,0.3,0.3,0.4C177.6,1074.2,177.5,1074.1,177.4,1074z M178.7,1075.2c0,0-0.1-0.1-0.1-0.1
			C178.6,1075.2,178.6,1075.2,178.7,1075.2z M178.4,1075c-0.1,0-0.1-0.1-0.2-0.1C178.3,1074.9,178.3,1074.9,178.4,1075z
			 M179.5,1075.5C179.5,1075.5,179.5,1075.5,179.5,1075.5C179.5,1075.5,179.5,1075.5,179.5,1075.5z"/>
		<path fill="#D06519" d="M115.3,1141.4c17.5-2,31.8-16.7,29.1-34.6H78.2c-2.5,17.7,11.4,32.6,29.1,34.6h1.7v16.2
			c-7.2,0.2-12.8,1.6-12.8,3.2c0,1.8,6.8,3.2,15.1,3.2s15.1-1.4,15.1-3.2c0-1.6-5.8-3-13.2-3.2v-16.2H115.3z"/>
	</g>
</g>
</svg>
