<?xml version="1.0" encoding="utf-8"?>
<!-- Generator: Adobe Illustrator 18.0.0, SVG Export Plug-In . SVG Version: 6.00 Build 0)  -->
<!DOCTYPE svg PUBLIC "-//W3C//DTD SVG 1.1//EN" "http://www.w3.org/Graphics/SVG/1.1/DTD/svg11.dtd">
<svg version="1.1" id="Layer_1" xmlns="http://www.w3.org/2000/svg" xmlns:xlink="http://www.w3.org/1999/xlink" x="0px" y="0px"
	 viewBox="0 331.5 283.5 283.5" enable-background="new 0 331.5 283.5 283.5" xml:space="preserve">
<g>
	<g>
		<g>
			<path fill="#D06519" d="M165.7,532.9h18.5c16.4,0,19.6-16.7,32.2-27.4c12.5-10.8,38.6-12,38.6-12v-2.3h-78.9h-69.2H28.3v2.3
				c0,0,26.1,1.2,38.6,12s15.9,27.4,32.2,27.4h18.5H165.7z"/>
		</g>
	</g>
</g>
<g>
	<g>
		<g>
			<path fill="#D06519" d="M187.8,445.6c0.4-0.4,0.8-0.8,1.3-1.1c-0.6-3.7-2.7-6.9-5.6-9c-3.4,2.5-5.6,6.5-5.5,11
				c0,4.5,2.3,8.5,5.8,10.8c0.2-0.1,0.3-0.2,0.4-0.3C183.5,452.9,184.7,448.7,187.8,445.6z"/>
			<path fill="#D06519" d="M189.3,446.2c-3.2,3.2-4.3,7.6-3.6,11.7c4.1,0.7,8.5-0.6,11.7-3.8c3.2-3.2,4.3-7.6,3.6-11.7
				C196.8,441.7,192.4,443,189.3,446.2z"/>
		</g>
		<path fill="#D06519" d="M199,480.5c-4.4,5.7-11.5,7.6-15.7,4.3c-4.3-3.3-4.2-10.6,0.3-16.3c4.4-5.7,11.4-7.6,15.7-4.3
			C203.6,467.5,203.5,474.8,199,480.5z"/>
		<path fill="#D06519" d="M77.7,455.4c-0.5,13.1,9.2,25.9,23.2,29.8c14.1,4,27.8-2.2,32.7-14.1L77.7,455.4z M103.3,474.6
			c-7.9-2.2-14.1-6.1-13.8-13.4l5.4,1.5c-0.4,0.1-0.8,0.3-1.1,0.4c-1.2,0.6-2.5,2.3-1.6,3.8c1,1.5,2.8,0.6,3.6-0.6
			c0.4-0.6,1.3-2,1.4-3l6.5,1.8c-0.6,0.8-1.2,1.9-1.5,2.5c-0.8,1.8-0.9,5,1.3,5.7c2.2,0.6,3.5-2.3,3.5-4.3c0-0.7-0.1-1.9-0.3-3
			l6.5,1.8c-0.4,0.9-0.1,2.6,0,3.4c0.3,1.4,1.5,3.3,3,2.4c1.5-0.8,1-3.1,0.2-4.2c-0.2-0.2-0.5-0.6-0.8-0.9l5.3,1.5
			C118.2,476.7,111.2,476.8,103.3,474.6z"/>
		<g>
			<path fill="#D06519" d="M147.7,429c-4,3.2-7.1,6.6-9.1,10c-1.3,2.2-2.2,4.4-2.7,6.6c-0.3-1-0.9-2-1.6-2.8l0.8-2.4
				c0.1-0.3,0.1-0.8-0.1-1.1c0,0-2.5-5.5,0.3-7c2.8-1.5,0.3-3.4,0.9-4.8c0.6-1.3,10.2-6.2,12.1-5.8c1.7,0.3,4.1,1.5,5.3,3.1
				C151.8,425.9,149.8,427.3,147.7,429z"/>
			<path fill="#D06519" d="M149.9,430.5c1.9-1.6,3.9-2.9,5.7-4.1c0,0,0,0,0,0c0.8,1.7,1.7,4.4,1.7,4.4c0.3,0.2,0.8,0.5,1.2,0.6
				c0,0,3.7,1.3,0.8,3c-2.9,1.7-4.9,9.1-10.6,5.6c-1.5-0.9-9.3,6.2-9.6,7.6c-0.1,0.2-0.1,0.4-0.2,0.6l-0.7,0.3
				C138.7,442.4,142.6,436.4,149.9,430.5z"/>
		</g>
		<g>
			<path fill="#D06519" d="M133.8,455.1L130,451c-0.3-0.6-0.5-1.5-0.4-2.2c0,0,1.3-11.9-3.7-13.3c-5-1.4-2-6.4-3.5-8.6
				c-1.5-2.2-18.3-6.5-21-4.7c-2.3,1.5-5.5,5-6.6,8.8c3.4,1.3,7.2,2.9,11,5c7.5,4,13.7,8.8,18.3,14.2c2.5,2.9,5.6,6.6,7.6,10.1
				C132.1,458.4,132.8,456.6,133.8,455.1z"/>
			<g>
				<path fill="#D06519" d="M131.1,465.7c0-0.2,0.1-2,0.2-2.6c-5.5-7.5-13.8-17.3-26.5-24.1c-3.6-1.9-7.2-3.5-10.5-4.8
					c0,0,0,0,0,0.1c-0.4,3.7-0.5,9.4-0.5,9.4c-0.3,0.6-1,1.3-1.5,1.8c0,0-5.1,4.4,0.1,6.1c5.2,1.7,11.5,14.8,18.6,5.1
					C112.7,454.5,129.5,462.8,131.1,465.7z"/>
			</g>
		</g>
		<path fill="#D06519" d="M158.1,442.5c-12.1,0-22,9.8-22,22s9.8,22,22,22c12.1,0,22-9.8,22-22S170.3,442.5,158.1,442.5z
			 M165.1,454.1c0.9-1.5,3.1-2.9,4.6-1.4c1.5,1.5,0.1,3.8-1.4,4.7c-0.9,0.6-3.5,1.8-4.3,1C163.3,457.6,164.6,455.1,165.1,454.1z
			 M158.1,447.9c2.2,0,2.7,2.6,2.3,4.3c-0.3,1.1-1.1,3.8-2.3,3.8c-1.2,0-2.1-2.7-2.3-3.8C155.4,450.5,155.9,447.9,158.1,447.9z
			 M146.4,452.8c1.5-1.5,3.8-0.1,4.7,1.4c0.6,0.9,1.8,3.5,1,4.3c-0.8,0.8-3.4-0.5-4.3-1C146.4,456.5,144.9,454.3,146.4,452.8z
			 M141.6,464.4c0-2.2,2.6-2.7,4.3-2.3c1.1,0.3,3.8,1.1,3.8,2.3c0,1.2-2.7,2.1-3.8,2.3C144.2,467.2,141.6,466.6,141.6,464.4z
			 M151.1,474.7c-0.9,1.5-3.1,2.9-4.7,1.4c-1.5-1.5-0.1-3.8,1.4-4.7c0.9-0.6,3.5-1.9,4.3-1C152.9,471.3,151.7,473.8,151.1,474.7z
			 M158.1,481c-2.2,0-2.7-2.6-2.3-4.3c0.3-1.1,1.1-3.8,2.3-3.8c1.2,0,2.1,2.7,2.3,3.8C160.8,478.4,160.3,481,158.1,481z
			 M158.1,471.8c-4,0-7.3-3.3-7.3-7.3c0-4,3.3-7.3,7.3-7.3c4,0,7.3,3.3,7.3,7.3C165.4,468.5,162.1,471.8,158.1,471.8z M169.8,476.1
			c-1.5,1.5-3.8,0.1-4.6-1.4c-0.6-0.9-1.8-3.5-1-4.3c0.8-0.8,3.4,0.5,4.3,1C169.9,472.4,171.3,474.6,169.8,476.1z M170.4,466.8
			c-1.1-0.3-3.8-1.1-3.8-2.3c0-1.2,2.7-2.1,3.8-2.3c1.7-0.4,4.3,0.1,4.3,2.3C174.6,466.6,172,467.2,170.4,466.8z"/>
	</g>
</g>
</svg>
