<?xml version="1.0" encoding="utf-8"?>
<!-- Generator: Adobe Illustrator 18.0.0, SVG Export Plug-In . SVG Version: 6.00 Build 0)  -->
<!DOCTYPE svg PUBLIC "-//W3C//DTD SVG 1.1//EN" "http://www.w3.org/Graphics/SVG/1.1/DTD/svg11.dtd">
<svg version="1.1" id="Layer_1" xmlns="http://www.w3.org/2000/svg" xmlns:xlink="http://www.w3.org/1999/xlink" x="0px" y="0px"
	 viewBox="0 0 283.5 283.5" enable-background="new 0 0 283.5 283.5" xml:space="preserve">
<path fill="#D06519" d="M269.3,60.4c-1.7,3.7-4.8,8.2-9.6,13.6c-4.5,5.4-10.5,10.2-17.3,14.5c0.3,1.4,0.3,2.8,0.6,4.3
	c0,1.4,0,2.8,0,4.3c0,7.9-0.9,16.7-2.8,26.1c-1.7,9.4-4.5,19-8.5,28.9c-3.7,9.6-8.5,19.6-14.5,28.9c-5.7,9.6-12.8,18.4-20.7,26.6
	c-7.9,8.2-17,15.3-27.2,21.5c-10.2,6.2-21.5,10.8-34,13.9c-14.7,3.1-29.2,4.8-43.9,4.8c-6.2,0-12.8-0.3-19.6-1.1
	c-6.8-0.6-13.6-2-20.1-3.7c-6.8-1.7-13.3-4.3-19.8-7.4c-5.7-2.3-11.9-6.2-17.6-11.1c14.7,2,28.6,0.9,42-3.7
	c13.3-4.5,25.2-10.8,36-19c-2.6,0-5.7-0.3-9.9-0.9c-4-0.6-8.5-2-13-4.3s-9.4-6-14.2-11.1c-4.8-4.8-8.8-11.9-12.5-20.7
	c1.1,0.3,2.8,0.6,4.8,0.6s4.3,0,6.5,0c2.3-0.3,4.5-0.6,6.8-0.9c2.3-0.3,4.3-0.6,6-1.1c-9.9-3.1-17.6-7.1-23.2-12.2
	c-5.7-5.1-9.6-10.2-12.5-15.6c-2.6-5.4-4.3-10.2-5.1-15c-0.6-4.8-1.1-8.5-1.1-11.1c2.6,1.4,6,3.1,10.8,4.8c4.8,1.7,9.1,2.6,12.8,2.3
	c-7.7-6.5-13.3-12.8-17-19.3S25.5,85,24.9,79.1s-0.3-11.9,1.1-17.6c1.4-5.7,3.1-11.1,5.4-16.4C42,56.7,52.2,66.3,62.6,73.7
	s20.1,13,29.5,17c9.4,4,18.1,6.5,26.4,7.9c8.2,1.4,15.3,2,21.3,2c-1.1-7.7-1.1-14.7,0-21.5c1.1-6.8,3.1-13,6.5-18.7
	s7.7-10.5,13.3-14.7c5.4-4,11.9-7.1,19.6-9.4c9.4-2.6,18.1-2.6,26.6,0.3c8.5,2.8,15.9,7.7,21.8,14.7c2.6-0.3,6.8-1.1,12.5-2.6
	c5.7-1.4,12.8-4.8,21.3-9.9c-0.6,2-1.4,4.3-2.8,7.1c-1.1,2.8-2.8,5.7-4.8,8.5c-2,2.8-4.3,5.7-6.8,8.2c-2.6,2.6-5.7,4.8-9.1,6.5
	c2.8-0.6,6-1.1,9.4-2c2.8-0.9,6.2-1.7,9.9-3.1C261.4,63.8,265.3,62.1,269.3,60.4z"/>
</svg>
