<?xml version="1.0" encoding="utf-8"?>
<!-- Generator: Adobe Illustrator 18.0.0, SVG Export Plug-In . SVG Version: 6.00 Build 0)  -->
<!DOCTYPE svg PUBLIC "-//W3C//DTD SVG 1.1//EN" "http://www.w3.org/Graphics/SVG/1.1/DTD/svg11.dtd">
<svg version="1.1" id="Layer_1" xmlns="http://www.w3.org/2000/svg" xmlns:xlink="http://www.w3.org/1999/xlink" x="0px" y="0px"
	 viewBox="0 0 283.5 283.5" enable-background="new 0 0 283.5 283.5" xml:space="preserve">
<path fill="#D06519" d="M253.4,28.9c1.1,1.1,1.7,2.3,1.7,4v59.8h-70.3c-5.1-6.8-11.6-12.2-19.3-16.2c-7.7-4-16.2-6-25.5-6
	c-9.4,0-17.6,2-25.5,6c-7.7,4-14.2,9.4-19.3,16.2H28.3V32.9c0-1.7,0.6-2.8,1.7-4c1.1-1.1,2.6-1.4,4-1.4h215.4
	C250.9,27.5,252.3,27.8,253.4,28.9z M196.7,127c0-9.1-2-17.3-6-25.2h64.3v148.8c0,1.7-0.6,2.8-1.7,4c-1.1,1.1-2.6,1.7-4.3,1.7H34
	c-1.7,0-3.1-0.6-4.3-1.7c-1.1-1.1-1.7-2.3-1.7-4V101.8h61.2c-1.7,3.7-3.1,7.7-4.3,11.9c-1.1,4.3-1.7,8.8-1.7,13.3
	c0,7.7,1.4,15,4.5,22.1c3.1,6.8,7.1,13,12.2,18.1c5.1,5.1,11.1,9.1,17.9,12.2s14.2,4.5,21.8,4.5c7.7,0,15-1.4,22.1-4.5
	c6.8-3.1,13-7.1,18.1-12.2c5.1-5.1,9.1-11.1,12.2-18.1C195,142,196.7,134.6,196.7,127z M47.3,38.6c-2.3,0.9-4.3,2.6-5.7,4.8
	s-2.3,4.8-2.3,7.4v31.7h7.9V38.6z M60.9,37.4h-7.7v45.4h7.7V37.4z M74.5,37.4h-7.9v45.4h7.9V37.4z M87.9,37.4h-7.7v45.4h7.7V69.4V51
	V37.4z M140,176.9c-6.8,0-13.3-1.4-19.6-4c-6-2.6-11.3-6.2-15.9-10.8s-7.9-9.9-10.8-15.9c-2.6-6-4-12.5-4-19.6
	c0-6.8,1.4-13.3,4-19.6c2.6-6,6.2-11.3,10.8-15.9c4.5-4.5,9.9-7.9,15.9-10.8c6-2.6,12.5-4,19.6-4c6.8,0,13.3,1.4,19.6,4
	c6,2.6,11.3,6.2,15.9,10.8c4.5,4.5,7.9,9.9,10.8,15.9c2.6,6,4,12.5,4,19.6c0,6.8-1.4,13.3-4,19.6c-2.6,6-6.2,11.3-10.8,15.9
	c-4.5,4.5-9.9,7.9-15.9,10.8C153.4,175.5,146.8,176.9,140,176.9z M140,87.3c-5.4,0-10.5,1.1-15.3,3.1c-4.8,2-9.1,4.8-12.5,8.5
	c-3.7,3.7-6.5,7.9-8.5,12.5c-2,4.8-3.1,9.9-3.1,15.3c0,5.4,1.1,10.8,3.1,15.6c2,4.8,4.8,9.1,8.5,12.5c3.7,3.4,7.9,6.2,12.5,8.5
	c4.8,2,9.9,3.1,15.3,3.1c5.4,0,10.8-1.1,15.6-3.1c4.8-2,9.1-4.8,12.5-8.5c3.4-3.7,6.2-7.7,8.5-12.5c2-4.8,3.1-9.9,3.1-15.6
	s-1.1-10.5-3.1-15.3s-4.8-9.1-8.5-12.5c-3.7-3.7-7.7-6.5-12.5-8.5C150.8,88.4,145.4,87.3,140,87.3z M244.3,50.7c0-3.7-1.4-6.8-4-9.6
	c-2.6-2.6-5.7-4-9.4-4h-21.8c-3.7,0-6.8,1.4-9.4,4s-4,6-4,9.6v18.4c0,3.7,1.4,6.8,4,9.4s5.7,4,9.4,4H231c3.7,0,6.8-1.4,9.4-4
	c2.6-2.6,4-5.7,4-9.4V50.7z"/>
</svg>
