<?xml version="1.0" encoding="utf-8"?>
<!-- Generator: Adobe Illustrator 17.1.0, SVG Export Plug-In . SVG Version: 6.00 Build 0)  -->
<!DOCTYPE svg PUBLIC "-//W3C//DTD SVG 1.1//EN" "http://www.w3.org/Graphics/SVG/1.1/DTD/svg11.dtd">
<svg version="1.1" id="Layer_1" xmlns="http://www.w3.org/2000/svg" xmlns:xlink="http://www.w3.org/1999/xlink" x="0px" y="0px"
	 viewBox="0 0 100 100" enable-background="new 0 0 100 100" xml:space="preserve">
<g>
	<g>
		<path fill="#4C5256" d="M48.7,57.9L48.7,57.9C48.7,57.9,48.8,57.9,48.7,57.9c0.4,0.4,0.8,0.6,1.3,0.6c0.4,0,0.8-0.2,1.2-0.5
			c0,0,0,0,0.1-0.1l35.4-38.1c-0.9-0.5-1.9-0.8-3-0.8l-67.4,0c-1.1,0-2.1,0.3-3,0.8L48.7,57.9z"/>
		<path fill="#4C5256" d="M37.2,52.4l-26.9-29C10.1,24,10,24.6,10,25.3l0,49.5c0,1.1,0.3,2.1,0.7,3L37.2,52.4z"/>
		<path fill="#4C5256" d="M62.8,52.4l26.4,25.3c0.5-0.9,0.7-1.9,0.7-3l0-49.5c0-0.6-0.1-1.3-0.3-1.8L62.8,52.4z"/>
		<path fill="#4C5256" d="M59.6,55.9l-4.9,5.2c-0.1,0.1-0.1,0.1-0.2,0.2c0,0,0,0,0,0c-1.2,1.2-2.9,1.9-4.6,1.9
			c-1.7,0-3.3-0.7-4.6-1.9c-0.1-0.1-0.1-0.1-0.2-0.2l-4.8-5.2l-26,24.9c0.6,0.2,1.2,0.3,1.9,0.3l67.4,0c0.7,0,1.3-0.1,1.9-0.3
			L59.6,55.9z"/>
	</g>
</g>
</svg>
