<?xml version="1.0" encoding="utf-8"?>
<!-- Generator: Adobe Illustrator 17.1.0, SVG Export Plug-In . SVG Version: 6.00 Build 0)  -->
<!DOCTYPE svg PUBLIC "-//W3C//DTD SVG 1.1//EN" "http://www.w3.org/Graphics/SVG/1.1/DTD/svg11.dtd">
<svg version="1.1" id="Layer_1" xmlns="http://www.w3.org/2000/svg" xmlns:xlink="http://www.w3.org/1999/xlink" x="0px" y="0px"
	 viewBox="0 0 100 100" enable-background="new 0 0 100 100" xml:space="preserve">
<path fill="#4C5256" d="M95,21.3c-0.6,1.3-1.7,2.9-3.4,4.8c-1.6,1.9-3.7,3.6-6.1,5.1c0.1,0.5,0.1,1,0.2,1.5c0,0.5,0,1,0,1.5
	c0,2.8-0.3,5.9-1,9.2c-0.6,3.3-1.6,6.7-3,10.2c-1.3,3.4-3,6.9-5.1,10.2c-2,3.4-4.5,6.5-7.3,9.4c-2.8,2.9-6,5.4-9.6,7.6
	c-3.6,2.2-7.6,3.8-12,4.9c-5.2,1.1-10.3,1.7-15.5,1.7c-2.2,0-4.5-0.1-6.9-0.4c-2.4-0.2-4.8-0.7-7.1-1.3c-2.4-0.6-4.7-1.5-7-2.6
	C9.2,82.3,7,80.9,5,79.2c5.2,0.7,10.1,0.3,14.8-1.3s8.9-3.8,12.7-6.7c-0.9,0-2-0.1-3.5-0.3c-1.4-0.2-3-0.7-4.6-1.5
	c-1.6-0.8-3.3-2.1-5-3.9c-1.7-1.7-3.1-4.2-4.4-7.3c0.4,0.1,1,0.2,1.7,0.2c0.7,0,1.5,0,2.3,0c0.8-0.1,1.6-0.2,2.4-0.3
	c0.8-0.1,1.5-0.2,2.1-0.4c-3.5-1.1-6.2-2.5-8.2-4.3c-2-1.8-3.4-3.6-4.4-5.5c-0.9-1.9-1.5-3.6-1.8-5.3c-0.2-1.7-0.4-3-0.4-3.9
	c0.9,0.5,2.1,1.1,3.8,1.7c1.7,0.6,3.2,0.9,4.5,0.8c-2.7-2.3-4.7-4.5-6-6.8s-2-4.4-2.2-6.5c-0.2-2.1-0.1-4.2,0.4-6.2
	c0.5-2,1.1-3.9,1.9-5.8c3.7,4.1,7.3,7.5,11,10.1s7.1,4.6,10.4,6c3.3,1.4,6.4,2.3,9.3,2.8c2.9,0.5,5.4,0.7,7.5,0.7
	c-0.4-2.7-0.4-5.2,0-7.6c0.4-2.4,1.1-4.6,2.3-6.6c1.2-2,2.7-3.7,4.7-5.2c1.9-1.4,4.2-2.5,6.9-3.3c3.3-0.9,6.4-0.9,9.4,0.1
	c3,1,5.6,2.7,7.7,5.2c0.9-0.1,2.4-0.4,4.4-0.9c2-0.5,4.5-1.7,7.5-3.5c-0.2,0.7-0.5,1.5-1,2.5c-0.4,1-1,2-1.7,3c-0.7,1-1.5,2-2.4,2.9
	c-0.9,0.9-2,1.7-3.2,2.3c1-0.2,2.1-0.4,3.3-0.7c1-0.3,2.2-0.6,3.5-1.1C92.2,22.5,93.6,21.9,95,21.3z"/>
</svg>
