<?xml version="1.0" encoding="utf-8"?>
<!-- Generator: Adobe Illustrator 17.1.0, SVG Export Plug-In . SVG Version: 6.00 Build 0)  -->
<!DOCTYPE svg PUBLIC "-//W3C//DTD SVG 1.1//EN" "http://www.w3.org/Graphics/SVG/1.1/DTD/svg11.dtd">
<svg version="1.1" id="Layer_1" xmlns="http://www.w3.org/2000/svg" xmlns:xlink="http://www.w3.org/1999/xlink" x="0px" y="0px"
	 viewBox="0 0 100 100" enable-background="new 0 0 100 100" xml:space="preserve">
<path fill="#4C5256" d="M89.4,10.2c0.4,0.4,0.6,0.8,0.6,1.4v21.1H65.2c-1.8-2.4-4.1-4.3-6.8-5.7c-2.7-1.4-5.7-2.1-9-2.1
	s-6.2,0.7-9,2.1c-2.7,1.4-5,3.3-6.8,5.7H10V11.6c0-0.6,0.2-1,0.6-1.4C11,9.8,11.5,9.7,12,9.7H88C88.5,9.7,89,9.8,89.4,10.2z
	 M69.4,44.8c0-3.2-0.7-6.1-2.1-8.9H90v52.5c0,0.6-0.2,1-0.6,1.4c-0.4,0.4-0.9,0.6-1.5,0.6H12c-0.6,0-1.1-0.2-1.5-0.6
	c-0.4-0.4-0.6-0.8-0.6-1.4V35.9h21.6c-0.6,1.3-1.1,2.7-1.5,4.2c-0.4,1.5-0.6,3.1-0.6,4.7c0,2.7,0.5,5.3,1.6,7.8
	c1.1,2.4,2.5,4.6,4.3,6.4c1.8,1.8,3.9,3.2,6.3,4.3c2.4,1.1,5,1.6,7.7,1.6c2.7,0,5.3-0.5,7.8-1.6c2.4-1.1,4.6-2.5,6.4-4.3
	s3.2-3.9,4.3-6.4C68.8,50.1,69.4,47.5,69.4,44.8z M16.7,13.6c-0.8,0.3-1.5,0.9-2,1.7c-0.5,0.8-0.8,1.7-0.8,2.6v11.2h2.8V13.6z
	 M21.5,13.2h-2.7v16h2.7V13.2z M26.3,13.2h-2.8v16h2.8V13.2z M31,13.2h-2.7v16H31v-4.7v-6.5V13.2z M49.4,62.4
	c-2.4,0-4.7-0.5-6.9-1.4c-2.1-0.9-4-2.2-5.6-3.8c-1.6-1.6-2.8-3.5-3.8-5.6c-0.9-2.1-1.4-4.4-1.4-6.9c0-2.4,0.5-4.7,1.4-6.9
	c0.9-2.1,2.2-4,3.8-5.6c1.6-1.6,3.5-2.8,5.6-3.8c2.1-0.9,4.4-1.4,6.9-1.4c2.4,0,4.7,0.5,6.9,1.4c2.1,0.9,4,2.2,5.6,3.8
	c1.6,1.6,2.8,3.5,3.8,5.6c0.9,2.1,1.4,4.4,1.4,6.9c0,2.4-0.5,4.7-1.4,6.9c-0.9,2.1-2.2,4-3.8,5.6c-1.6,1.6-3.5,2.8-5.6,3.8
	C54.1,61.9,51.8,62.4,49.4,62.4z M49.4,30.8c-1.9,0-3.7,0.4-5.4,1.1c-1.7,0.7-3.2,1.7-4.4,3c-1.3,1.3-2.3,2.8-3,4.4
	c-0.7,1.7-1.1,3.5-1.1,5.4s0.4,3.8,1.1,5.5c0.7,1.7,1.7,3.2,3,4.4c1.3,1.2,2.8,2.2,4.4,3c1.7,0.7,3.5,1.1,5.4,1.1s3.8-0.4,5.5-1.1
	c1.7-0.7,3.2-1.7,4.4-3c1.2-1.3,2.2-2.7,3-4.4c0.7-1.7,1.1-3.5,1.1-5.5s-0.4-3.7-1.1-5.4c-0.7-1.7-1.7-3.2-3-4.4
	c-1.3-1.3-2.7-2.3-4.4-3C53.2,31.2,51.3,30.8,49.4,30.8z M86.2,17.9c0-1.3-0.5-2.4-1.4-3.4c-0.9-0.9-2-1.4-3.3-1.4h-7.7
	c-1.3,0-2.4,0.5-3.3,1.4c-0.9,0.9-1.4,2.1-1.4,3.4v6.5c0,1.3,0.5,2.4,1.4,3.3c0.9,0.9,2,1.4,3.3,1.4h7.7c1.3,0,2.4-0.5,3.3-1.4
	c0.9-0.9,1.4-2,1.4-3.3V17.9z"/>
</svg>
