<?xml version="1.0" encoding="utf-8"?>
<!-- Generator: Adobe Illustrator 17.1.0, SVG Export Plug-In . SVG Version: 6.00 Build 0)  -->
<!DOCTYPE svg PUBLIC "-//W3C//DTD SVG 1.1//EN" "http://www.w3.org/Graphics/SVG/1.1/DTD/svg11.dtd">
<svg version="1.1" id="Layer_1" xmlns="http://www.w3.org/2000/svg" xmlns:xlink="http://www.w3.org/1999/xlink" x="0px" y="0px"
	 viewBox="0 0 800 500" enable-background="new 0 0 800 500" xml:space="preserve">
<g id="Layer_1_1_">
	
		<text transform="matrix(1 0 0 1 591.626 101.1534)" opacity="0.7" fill="#FFFFFF" enable-background="new    " font-family="'ArialMT'" font-size="22.4347">MTR</text>
	
		<text transform="matrix(1 0 0 1 571.0606 128.0748)" opacity="0.7" fill="#FFFFFF" enable-background="new    " font-family="'ArialMT'" font-size="22.4347">(Exit A3)</text>
	<g>
		<line fill="none" x1="557.8" y1="90" x2="571.2" y2="90"/>
		<g>
			<polygon opacity="0.7" fill="#FFFFFF" enable-background="new    " points="557,98.2 571.2,90 557,81.7 			"/>
		</g>
	</g>
	<g opacity="0.7">
		<path fill="#FFFFFF" d="M418.7,26.5h-0.4v5.2h0.4c1.9,0,2.9-0.4,2.9-2.6S420.6,26.5,418.7,26.5z"/>
		<polygon fill="#FFFFFF" points="449.4,34.3 453.5,34.3 451.3,28.1 		"/>
		<path fill="#FFFFFF" d="M463.9,26.9h-0.4v11.3h0.4c4.1,0,5.6-2.3,5.6-5.6C469.6,28.5,467.6,26.9,463.9,26.9z"/>
		<path fill="#FFFFFF" d="M435.2,26.5c-2.9,0-4.9,2.6-4.9,5.6c0,2.6,1.2,6,4.9,6c3.7,0,4.9-3.3,4.9-6S438.1,26.5,435.2,26.5z"/>
		<path fill="#FFFFFF" d="M92.3,11.8v40h619.2v-40C711.5,11.8,92.3,11.8,92.3,11.8z M313.3,40.7H310v-7.4h-6v7.4h-3.3V23.8h3.3v6.8
			h6v-6.8h3.3V40.7z M324.4,26.9h-5.6v3.7h5.2v2.9h-5.2v4.1h5.6v2.9h-8.6V23.8h8.6V26.9z M341.3,40.9H339l-9-12v11.6h-3.3V23.3h2.3
			l9,12V24h3.3V40.9z M358.4,40.9h-2.3l-9-12v11.6h-3.3V23.3h2.3l9,12V24h3.3V40.9z M369.7,26.9h-5.6v3.7h5.2v2.9h-5.2v4.1h5.6v2.9
			h-9V23.8h8.6v2.9h0.4V26.9z M376.5,40.9c-2.3,0-4.1-1.5-5.2-3.3l2.3-2.3c0.4,1.2,1.5,2.6,2.9,2.6c1.5,0,2.3-1.2,2.3-2.6
			c0-1.9-1.5-2.3-2.9-2.6c-2.3-0.8-3.7-1.9-3.7-4.5s2.3-5.2,4.9-5.2c1.5,0,3.7,0.8,4.5,1.9l-1.5,2.3c-0.8-0.8-1.5-1.5-2.6-1.5
			c-1.2,0-2.3,0.8-2.3,1.9c0,2.9,6.8,1.5,6.8,7.4C381.7,38.6,379.8,40.9,376.5,40.9z M388,40.9c-2.3,0-4.1-1.5-5.2-3.3l2.3-2.3
			c0.4,1.2,1.5,2.6,2.9,2.6c1.5,0,2.3-1.2,2.3-2.6c0-1.9-1.5-2.3-2.9-2.6c-2.3-0.8-3.7-1.9-3.7-4.5s2.3-5.2,4.9-5.2
			c1.5,0,3.7,0.8,4.5,1.9l-1.5,2.3c-0.8-0.8-1.5-1.5-2.6-1.5c-1.2,0-2.3,0.8-2.3,1.9c0,2.9,6.8,1.5,6.8,7.4
			C393.6,38.6,391.4,40.9,388,40.9z M402.3,32.9v7.8H399v-7.8l-5.2-9h3.7l2.9,6l3.3-6h3.7L402.3,32.9z M422.5,40.9v-0.4h-0.1
			l-4.1-6.8v6.8H415V23.7h4.5c3.3,0,5.6,1.5,5.6,5.2c0,2.3-1.2,4.5-3.3,4.9l4.9,7.2L422.5,40.9L422.5,40.9z M435.2,40.9
			c-5.2,0-8.2-4.1-8.2-9s3.3-9,8.2-9c4.9,0,8.2,3.7,8.2,9C443.4,37.3,440.4,40.9,435.2,40.9z M455.8,40.7l-1.2-3.7h-6l-1.5,3.7h-3.3
			l6.8-17.3h2.6l6.4,17.3H455.8z M465.1,40.7h-4.9V23.8h4.9c4.9,0,8.2,3.7,8.2,8.6C473.3,36.8,469.9,40.7,465.1,40.7z"/>
	</g>
	<g opacity="0.5">
		<path opacity="0.7" fill="#FFFFFF" enable-background="new    " d="M419.2,438h-0.8v5.2h0.8c1.8-0.1,2.9-0.5,2.9-2.7
			C422.1,438.2,421,438,419.2,438z"/>
		<path opacity="0.7" fill="#FFFFFF" enable-background="new    " d="M404.9,437.9c-2.9,0-4.9,2.6-4.9,5.6c0,2.6,1.2,6,4.9,6
			c3.7,0,4.9-3.3,4.9-6C410.1,440.9,408.2,437.9,404.9,437.9z"/>
		<path opacity="0.7" fill="#FFFFFF" enable-background="new    " d="M464.3,464.6h-0.4v5.2h0.4c1.9,0,2.9-0.4,2.9-2.6
			C467.3,465.1,465.9,464.6,464.3,464.6z"/>
		<path opacity="0.7" fill="#FFFFFF" enable-background="new    " d="M367.5,426.3v62.4h132.7v-62.4H367.5z M439.6,435.2l3.3,11.6
			l3.3-11.6h1.9l3.3,11.6l3.3-11.6h3.3l-5.1,17.3h-2.6l-3.3-11.3l-3.3,11.3h-2.3l-5.2-17.3H439.6z M427,435.3h8.6v2.9H430v3.7h5.6
			v2.9h-5.2v4.5h5.2v2.9H427V435.3z M395.1,452h-3.3v-7.4h-6v7.4h-3.3v-16.9h3.3v6.8h6v-6.8h3.3V452z M409.3,466.6
			c-0.8-1.2-2.3-1.9-3.7-1.9c-2.9,0-4.9,2.9-4.9,6c0,2.9,1.9,5.6,4.9,5.6c1.5,0,2.9-0.8,3.7-1.9v3.7c-1.2,0.8-2.6,1.2-3.7,1.2
			c-4.9,0-8.2-4.1-8.2-8.6c0-4.9,3.3-9,8.2-9c1.5,0,2.6,0.4,3.7,1.2V466.6z M404.9,452.4c-5.2,0-8.2-4.1-8.2-9s3.3-9,8.2-9
			c4.9,0,8.2,3.7,8.2,9C413.4,448.7,410.1,452.4,404.9,452.4z M420.2,465.2h-5.6v3.7h5.2v2.9h-5.2v4.5h5.6v2.9h-8.6v-16.9h8.6V465.2
			z M418.7,445.8v6.4h-3.3v-16.9h4.1c3.3,0,6,1.5,6,5.2s-1.9,5.2-5.2,5.2L418.7,445.8L418.7,445.8z M437,479.4h-2.3l-9-12V479h-3.3
			v-17.3h2.3l9,12v-11.3h3.3V479.4z M448.3,465.2L448.3,465.2h-3.5v14.2h-3.3v-14.2h-3.3v-2.9h10.1L448.3,465.2L448.3,465.2z
			 M458.3,465.2h-5.6v3.7h5.2v2.9h-5.2v4.5h5.6v2.9h-8.6v-16.9h8.6V465.2z M459.8,435.3h8.6v2.9h-5.6v3.7h5.2v2.9h-5.2v4.5h5.6v2.9
			h-8.6V435.3z M468.2,479.4V479H468l-4.1-6.8v6.8h-3.3v-16.9h4.5c3.3,0,5.6,1.5,5.6,5.2c0,2.3-1.2,4.5-3.3,4.9l4.9,7.2L468.2,479.4
			L468.2,479.4z M478.5,452h-7.8v-16.9h3.3v14.2h4.5V452z M487.5,452h-7.8v-16.9h3.3v14.2h4.5V452z"/>
	</g>
	<g>
		<path opacity="0.7" fill="#FFFFFF" enable-background="new    " d="M291.2,390.2c-3.3,0-4.9,2.9-4.9,6c0,2.9,1.9,5.6,4.9,5.6
			c0.8,0,1.5-0.4,1.9-0.4l-2.6-3.3l3.3-0.4l1.5,1.9c0.8-0.8,1.2-2.3,1.2-3.3C296,393.2,294.2,390.2,291.2,390.2z"/>
		<path opacity="0.7" fill="#FFFFFF" enable-background="new    " d="M400,390.7c-2.9,0-4.9,2.6-4.9,5.6c0,2.6,1.2,6,4.9,6
			c3.7,0,4.9-3.3,4.9-6C404.9,393.2,402.9,390.7,400,390.7z"/>
		<path opacity="0.7" fill="#FFFFFF" enable-background="new    " d="M424.7,174.9h-0.4v5.2h0.4c1.9,0,2.9-0.4,2.9-2.6
			C427.6,175.4,426.6,174.9,424.7,174.9z"/>
		<path opacity="0.7" fill="#FFFFFF" enable-background="new    " d="M383.5,390.2h-0.4v5.2h0.4c1.9,0,2.9-0.4,2.9-2.6
			C386.6,391,385.4,390.2,383.5,390.2z"/>
		<path opacity="0.7" fill="#FFFFFF" enable-background="new    " d="M428.8,390.7h-0.4V402h0.4c4.1,0,5.6-2.3,5.6-5.6
			C434.4,392.3,432.5,390.7,428.8,390.7z"/>
		<polygon opacity="0.7" fill="#FFFFFF" enable-background="new    " points="414.2,398.3 418.3,398.3 416.1,392.1 		"/>
		<path opacity="0.7" fill="#FFFFFF" enable-background="new    " d="M441.2,186.4c3.7,0,4.9-3.3,4.9-6c0-2.6-1.9-5.6-4.9-5.6
			s-4.9,2.6-4.9,5.6C436.3,183,437.3,186.4,441.2,186.4z"/>
		<path opacity="0.7" fill="#FFFFFF" enable-background="new    " d="M315.9,186.4c3.7,0,4.9-3.3,4.9-6c0-2.6-1.9-5.6-4.9-5.6
			s-4.9,2.6-4.9,5.6C311,183,312.1,186.4,315.9,186.4z"/>
		<path opacity="0.7" fill="#FFFFFF" enable-background="new    " d="M475.6,180.7c0-3.7-1.9-5.6-5.6-5.6h-0.4v11.3h0.4
			C474,186.4,475.6,184.1,475.6,180.7z"/>
		<polygon opacity="0.7" fill="#FFFFFF" enable-background="new    " points="457.2,176.6 455.4,183 459.5,183 		"/>
		<path opacity="0.7" fill="#FFFFFF" enable-background="new    " d="M387.7,186.4c3.7,0,4.9-3.3,4.9-6c0-2.6-1.9-5.6-4.9-5.6
			c-2.9,0-4.9,2.6-4.9,5.6C382.5,183,383.9,186.4,387.7,186.4z"/>
		<polygon opacity="0.7" fill="#FFFFFF" enable-background="new    " points="416.9,329.7 410.5,331.5 410.5,331.8 416.9,333.2 		
			"/>
		<path opacity="0.7" fill="#FFFFFF" enable-background="new    " d="M414.2,291.6c-2.6,0-5.6,1.9-5.6,4.9s2.6,4.9,5.6,4.9
			c2.6,0,6-1.2,6-4.9C420.2,293,416.9,291.6,414.2,291.6z"/>
		<path opacity="0.7" fill="#FFFFFF" enable-background="new    " d="M598.2,376V202.8h106.9v-45.3H86.3v45.3h82.2V376h-77v40.8
			h619.2V376H598.2z M585,226.6c1.2,0,1.9,0.8,1.9,1.9c0,1.3-0.8,1.9-1.9,1.9s-1.9-0.8-1.9-1.9C583.1,227.4,583.9,226.6,585,226.6z
			 M569.7,229.5h2.9v3.3h14.2v3.3h-14.2v3.3h-2.9V229.5z M571.4,240.4l2.3,1.5c-0.8,0.8-1.5,1.5-1.5,2.6c0,1.2,0.8,2.3,1.9,2.3
			c2.9,0,1.5-6.8,7.4-6.8c3.3,0,5.6,2.3,5.6,5.6c0.3,2.4-1.3,3.8-3.1,5l-2.3-2.3c1.2-0.4,2.6-1.5,2.6-2.9c0-1.5-1.2-2.3-2.6-2.3
			c-1.9,0-2.3,1.5-2.6,2.9c-0.8,2.3-1.9,3.7-4.5,3.7c-2.9,0-5.2-2.3-5.2-4.9C569.4,243.4,570.2,241.2,571.4,240.4z M573.5,259
			l1.5,2.9c-1.5,0.8-2.6,2.3-2.6,3.7c0,3.3,3.3,4.9,6,4.9c2.9,0,6-1.5,6-4.9c0-2.3-1.9-3.7-3.7-3.7v3.7h-2.9v-7.3h0.4
			c4.9,0,9,2.6,9,7.8c0.1,4.9-4.3,7.9-8.8,7.9c-4.9,0-9-3.3-9-8.2C569.4,262.8,571,260.6,573.5,259z M466.2,172.1h4.9
			c4.9,0,8.2,3.7,8.2,8.6s-3.3,8.6-8.2,8.6h-4.9V172.1z M456.1,171.7h2.6l6.4,17.3h-3.3l-1.2-3.7h-6l-1.5,3.7h-3.3L456.1,171.7z
			 M441.2,171.7c4.9,0,8.2,3.7,8.2,9c0,4.9-3.3,9-8.2,9c-5.2,0-8.2-4.1-8.2-9C432.5,175.6,435.9,171.7,441.2,171.7z M421.4,243.2
			c1.2,0,1.9,0.8,1.9,1.9s-0.8,1.9-1.9,1.9c-1.2,0-1.9-0.8-1.9-1.9C419.4,244,420.2,243.2,421.4,243.2z M422.8,320.3v3.3v3.3
			l-3.7,1.2v6l3.7,1.9v3.3l-17.3-6.8v-2.6l17.3-6.4l-17.3-2.6v-2.3l11.3-4.1l-11.3-4.1V308l17.3-2.6v3.3l-10.5,1.5l10.9,3.7v1.2
			l-10.9,3.7L422.8,320.3z M422.8,249.5v3.3h-14.2v3.3h-2.9V246h2.9v3.3L422.8,249.5z M414.6,305c-4.9,0-9-3.3-9-8.2s3.7-8.2,9-8.2
			c4.9,0,9,3.3,9,8.2S419.4,305,414.6,305z M406,278.1v-3.7l9,5.2h7.8v3.3H415l-9,5.2v-3.7l6-2.9L406,278.1z M420.2,267.5l-2.3-2.3
			c1.2-0.4,2.6-1.5,2.6-2.9c0-1.5-1.2-2.3-2.6-2.3c-1.9,0-2.3,1.5-2.6,2.9c-0.8,2.3-1.9,3.7-4.5,3.7c-2.9,0-5.2-2.3-5.2-4.9
			c0-1.5,0.8-3.7,1.9-4.5l2.3,1.5c-0.8,0.8-1.5,1.5-1.5,2.6c0,1.2,0.8,2.3,1.9,2.3c2.9,0,1.5-6.8,7.4-6.8c3.3,0,5.6,2.3,5.6,5.6
			C423.5,264.5,422.1,266.4,420.2,267.5z M397.4,171.7h2.3l9,12v-11.1h3.3v17.3h-2.3l-9-12v11.6h-3.3V171.7z M387.7,171.7
			c4.9,0,8.2,3.7,8.2,9c0,4.9-3.3,9-8.2,9c-4.9,0-8.2-4.1-8.2-9C379,175.6,382.5,171.7,387.7,171.7z M378.6,172.1v2.9h-3.3v14.2H372
			v-14.1h-3.3v-2.9h10v-0.1H378.6z M361.9,181.6c-2.3-0.8-3.7-1.9-3.7-4.5s2.3-5.2,4.9-5.2c1.5,0,3.7,0.8,4.5,1.9l-1.5,2.3
			c-0.8-0.8-1.5-1.5-2.6-1.5c-1.2,0-2.3,0.8-2.3,1.9c0,2.9,6.8,1.5,6.8,7.4c0,3.3-2.3,5.6-5.6,5.6c-2.3,0-4.1-1.5-5.2-3.3l2.3-2.3
			c0.4,1.2,1.5,2.6,2.9,2.6c1.5,0,2.3-1.2,2.3-2.6C364.8,182.6,363,181.8,361.9,181.6z M340.9,171.7h2.3l9,12v-11.1h3.3v17.3h-2.3
			l-9-12v11.6h-3.3V171.7z M326,172.1h3.3v6.8h6v-6.8h3.3V189h-3.3v-7.4h-6v7.4H326V172.1z M315.9,171.7c4.9,0,8.2,3.7,8.2,9
			c0,4.9-3.3,9-8.2,9c-5.2,0-8.2-4.1-8.2-9C307.7,175.6,311,171.7,315.9,171.7z M300.1,185.5c0,0.4,0.8,1.2,1.2,1.2
			c1.5,0,1.5-2.6,1.5-3.7v-10.9h3.3v11.3c0,1.5,0,2.9-1.2,4.1c-0.8,1.2-2.3,1.9-3.7,1.9c-1.2,0-2.6-0.8-3.3-1.5L300.1,185.5z
			 M222.8,376h-33.6V202.8h33.6C222.8,202.8,222.8,376,222.8,376z M243.7,202.8h154.5V376H243.7V202.8z M296.4,405.1l-1.2-1.5
			c-1.2,0.8-2.6,1.2-4.1,1.2c-4.9,0-8.2-4.1-8.2-9s3.3-9,8.2-9s8.2,4.1,8.2,9c0,2.3-0.8,4.5-1.9,6l2.3,2.6L296.4,405.1z
			 M307.3,404.7c-4.5,0-6.4-2.9-6.4-7.2v-10.1h3.3v9.3c0,2.3,0,4.9,2.9,4.9s2.9-2.9,2.9-4.9v-9.3h3.3v10.1h0.3
			C313.7,401.8,311.8,404.7,307.3,404.7z M324.8,390.7h-5.6v3.7h5.2v2.9h-5.2v4.5h5.6v2.9h-9v-16.9h8.6v2.6h0.4V390.7z M335.7,390.7
			h-5.6v3.7h5.2v2.9h-5.2v4.5h5.6v2.9h-8.6v-16.9h8.6V390.7z M352.6,404.7h-2.3l-9-12v11.6H338V387h2.3l9,12v-11.3h3.3L352.6,404.7
			L352.6,404.7z M356.3,394.2l-2.3-0.4l2.6-6.8l2.9,0.4L356.3,394.2z M366,405.1c-2.3,0-4.1-1.5-5.2-3.3l2.3-2.3
			c0.4,1.2,1.5,2.6,2.9,2.6c1.5,0,2.3-1.2,2.3-2.6c0-1.9-1.5-2.3-2.9-2.6c-2.3-0.8-3.7-1.9-3.7-4.5s2.3-5.2,4.9-5.2
			c1.5,0,3.7,0.8,4.5,1.9l-1.5,2.3c-0.8-0.8-1.5-1.5-2.6-1.5c-1.2,0-2.3,0.8-2.3,1.9c0,2.9,6.8,1.5,6.8,7.4
			C371.6,402.6,369.3,405.1,366,405.1z M387.5,404.7v-0.4h-0.1l-4.1-6.8v6.8H380v-16.9h4.5c3.3,0,5.6,1.5,5.6,5.2
			c0,2.3-1.2,4.5-3.3,4.9l4.9,7.2L387.5,404.7L387.5,404.7z M400,405.1c-5.2,0-8.2-4.1-8.2-9s3.3-9,8.2-9s8.2,3.7,8.2,9
			C408.2,401,404.9,405.1,400,405.1z M420.6,404.3l-1.2-3.7h-6l-1.5,3.7h-3.3l6.8-17.3h2.6l6.4,17.3H420.6z M424.3,189H421v-16.9
			h4.5c3.3,0,5.6,1.5,5.6,5.2c0,2.3-1.2,4.5-3.3,4.9l4.9,7.2h-4.1l-4.2-7.2L424.3,189L424.3,189z M429.5,404.3h-4.9v-16.9h4.9
			c4.9,0,8.2,3.7,8.2,8.6S434.4,404.3,429.5,404.3z M454.6,390.7H449v3.7h5.2v2.9H449v4.5h5.6v2.9H446v-16.9h8.6V390.7z
			 M467.6,404.3l-1.2-3.7h-6l-1.5,3.7h-3.3l6.8-17.3h2.6l6.4,17.3H467.6z M476.6,405.1c-2.3,0-4.1-1.5-5.2-3.3l2.3-2.3
			c0.4,1.2,1.5,2.6,2.9,2.6s2.3-1.2,2.3-2.6c0-1.9-1.5-2.3-2.9-2.6c-2.3-0.8-3.7-1.9-3.7-4.5s2.3-5.2,4.9-5.2c1.5,0,3.7,0.8,4.5,1.9
			l-1.5,2.3c-0.8-0.8-1.5-1.5-2.6-1.5c-1,0-2.3,0.8-2.3,1.9c0,2.9,6.8,1.5,6.8,7.4C482.2,402.6,480.1,405.1,476.6,405.1z
			 M492.7,390.7h-3.3v14.2h-3.3v-14.2h-3.3v-2.9h10.1L492.7,390.7z M558.2,376h-0.4H432.2V202.8h126V376z M569.4,306.5h2.9v3.3h14.2
			v3.5h-14.2v3.3h-2.9V306.5z M576.3,340.4v-5.2h2.9v5.2h4.5v-5.6h2.9v8.6h-0.1h-16.9v-8.6h2.9v5.6H576.3z M586.6,332.6h-16.9V324
			h2.9v5.2h3.7V324h2.9v5.2h4.5v-5.6h2.9L586.6,332.6L586.6,332.6z M586.8,352.4h-0.3h-16.9v-3.3h14.2v-4.5h2.9L586.8,352.4
			L586.8,352.4z M579.8,305.4h-10.1V302h9.3c2.3,0,4.9,0,4.9-2.9s-2.9-2.9-4.9-2.9h-9.3v-3.3h10.1c4.1,0,7.2,1.9,7.2,6.4
			C587.3,303.5,584,305.4,579.8,305.4z M587.3,277.7l-12,9H587v3.3h-17.3v-2.3h-0.3l12-9H570v-3.3h17.3V277.7z"/>
		<polygon opacity="0.7" fill="#FFFFFF" enable-background="new    " points="461.4,398.3 465.5,398.3 463.2,392.1 		"/>
	</g>
	<g>
		<path fill="#CF720F" d="M377.2,342.5c14.2,0,25.4-11.3,25.4-25.4c0-14.2-11.3-25.4-25.4-25.4c-14.2,0-25.4,11.3-25.4,25.4
			C351.8,330.7,363,342.5,377.2,342.5"/>
		<path fill="#FFFFFF" d="M381.7,323.5h3.7c3.3,0,3.7-3.3,6.4-5.2c2.6-2.3,7.4-2.3,7.4-2.3v-0.4h-15.3h-13.4h-15.3v0.4
			c0,0,5.2,0.4,7.4,2.3c2.6,2.3,2.9,5.2,6.4,5.2h3.7H381.7z"/>
	</g>
	<g>
		<path opacity="0.5" fill="#FFFFFF" enable-background="new    " d="M414.1,84.8h-0.4v5h0.4c1.8,0,3-0.5,3-2.6
			C417.1,85.2,415.8,84.8,414.1,84.8z"/>
		<path opacity="0.5" fill="#FFFFFF" enable-background="new    " d="M317.5,111.3h-0.6v5h0.7c1.9,0,2.9-0.4,2.9-2.6
			C320.5,111.6,319.3,111.3,317.5,111.3z"/>
		<path opacity="0.5" fill="#FFFFFF" enable-background="new    " d="M395.7,111.3c-3.1,0-4.9,2.7-4.9,5.4c0,2.6,1.3,5.7,4.9,5.7
			s4.9-3.1,4.9-5.7C400.5,114,398.7,111.3,395.7,111.3z"/>
		<path opacity="0.5" fill="#FFFFFF" enable-background="new    " d="M379.7,111.2h-0.4v5h0.4c1.8,0,3-0.5,3-2.6
			C382.7,111.6,381.4,111.2,379.7,111.2z"/>
		<path opacity="0.5" fill="#FFFFFF" enable-background="new    " d="M344.2,96c3.6,0,4.9-3.1,4.9-5.7c0-2.7-1.8-5.4-4.9-5.4
			s-4.9,2.7-4.9,5.4C339.3,92.9,340.6,96,344.2,96z"/>
		<path opacity="0.5" fill="#FFFFFF" enable-background="new    " d="M254.6,62.7v82.6h255V62.7H254.6z M400.6,81.7
			c5,0,8.2,3.8,8.2,8.7c0,4.9-3.1,8.8-8.2,8.8s-8.2-3.9-8.2-8.8C392.4,85.5,395.7,81.7,400.6,81.7z M378.4,82.2h3.2v6.5h6v-6.5h3.2
			v16.6h-3.2v-7.4h-6v7.4h-3.2V82.2z M367.3,82.2h9.9V85h-3.3v13.8h-3.2V85h-3.3v-2.8H367.3z M353.9,82.2h3.2v9.3
			c0,2,0.2,4.9,2.9,4.9c2.8,0,2.9-2.9,2.9-4.9v-9.3h3.2v9.9c0,4-1.7,7.1-6.2,7.1c-4.4,0-6.2-3.1-6.2-7.1v-9.9H353.9z M344.2,81.7
			c5,0,8.2,3.8,8.2,8.7c0,4.9-3.1,8.8-8.2,8.8s-8.2-3.9-8.2-8.8C336,85.5,339.2,81.7,344.2,81.7z M318.5,119h-1.6v6.2h-3.2v-16.6
			h4.4c3.5,0,5.7,1.4,5.7,5.1C323.8,117.2,321.9,119,318.5,119z M328.8,91.2c-2.1-0.9-3.7-2-3.7-4.5c0-2.8,2-5,4.8-5
			c1.5,0,3.5,0.7,4.5,1.8l-1.5,2.2c-0.6-0.8-1.4-1.4-2.5-1.4c-1,0-2,0.8-2,1.9c0,2.8,6.6,1.6,6.6,7.2c0,3.3-2.1,5.7-5.5,5.7
			c-2.3,0-4-1.3-5.1-3.2l2.1-2c0.4,1.3,1.6,2.4,3,2.4c1.3,0,2.1-1.1,2.1-2.4C331.7,92.2,330.1,91.7,328.8,91.2z M344.6,125.2
			l-1.3-3.5h-5.8l-1.4,3.5H333h-0.4h-7.5v-16.6h3.2v13.8h4.6v1.9l6.1-16.1h2.5l6.3,17C347.8,125.2,344.6,125.2,344.6,125.2z
			 M353.7,117.5v7.6h-3.2v-7.6l-5.1-9h3.8l2.9,5.8l3.2-5.8h3.8L353.7,117.5z M374.4,116.8c0,4.7-2.4,8.8-7.5,8.8
			c-4.8,0-7.9-4.1-7.9-8.7c0-4.7,3.1-8.8,8.1-8.8c2.8,0,5.3,1.4,6.6,4l-2.9,1.5c-0.7-1.5-2.1-2.6-3.8-2.6c-3.1,0-4.7,3.2-4.7,5.9
			c0,2.8,1.6,5.8,4.7,5.8c2,0,3.7-1.8,3.8-3.8h-3.5v-2.6h7.2v0.5H374.4z M383.3,125.2l-4-6.7l0,0v6.7H376v-16.6h4.4
			c3.3,0,5.5,1.5,5.5,5c0,2.1-1.2,4.2-3.4,4.6l4.7,7H383.3z M395.7,125.6c-5.1,0-8.2-3.9-8.2-8.8s3.3-8.7,8.2-8.7
			c4.9,0,8.2,3.8,8.2,8.7C403.9,121.7,400.7,125.6,395.7,125.6z M417.7,118.5c0,4-1.7,7.1-6.2,7.1c-4.4,0-6.2-3.1-6.2-7.1v-9.9h3.2
			v9.3c0,2,0.2,4.9,2.9,4.9c2.8,0,2.9-2.9,2.9-4.9v-9.3h3.2v9.9H417.7z M413.7,92.1L413.7,92.1v6.7h-3.2V82.2h4.4
			c3.3,0,5.5,1.5,5.5,5c0,2.1-1.2,4.2-3.4,4.6l4.7,7h-3.9L413.7,92.1z M434.3,125.5H432l-8.7-11.6l0,0v11.3H420v-17h2.3l8.7,11.6
			l0,0v-11.2h3.2L434.3,125.5L434.3,125.5z M426,87.5L426,87.5v11.3h-3.2v-17h2.3l8.7,11.6l0,0V82.2h3.2v16.9h-2.3L426,87.5z
			 M441.3,125.2h-4.6v-16.6h4.6c4.8,0,8,3.6,8,8.3C449.3,121.5,446,125.2,441.3,125.2z"/>
		<polygon opacity="0.5" fill="#FFFFFF" enable-background="new    " points="340.3,113 338.5,119 342.4,119 		"/>
		<path opacity="0.5" fill="#FFFFFF" enable-background="new    " d="M400.6,96c3.6,0,4.9-3.1,4.9-5.7c0-2.7-1.8-5.4-4.9-5.4
			s-4.9,2.7-4.9,5.4C395.8,92.9,397,96,400.6,96z"/>
		<path opacity="0.5" fill="#FFFFFF" enable-background="new    " d="M440.4,111.4h-0.5v11h0.5c4,0,5.5-2.2,5.5-5.5
			C446,113.3,444.1,111.4,440.4,111.4z"/>
	</g>
</g>
<g id="Layer_2">
</g>
<g id="Layer_3">
</g>
</svg>
